<?xml version="1.0" encoding="UTF-8" standalone="no"?>
<svg
   xmlns:dc="http://purl.org/dc/elements/1.1/"
   xmlns:cc="http://creativecommons.org/ns#"
   xmlns:rdf="http://www.w3.org/1999/02/22-rdf-syntax-ns#"
   xmlns:svg="http://www.w3.org/2000/svg"
   xmlns="http://www.w3.org/2000/svg"
   xmlns:sodipodi="http://sodipodi.sourceforge.net/DTD/sodipodi-0.dtd"
   xmlns:inkscape="http://www.inkscape.org/namespaces/inkscape"
   width="40mm"
   height="20mm"
   viewBox="0 0 40 20"
   version="1.1"
   id="svg2196"
   inkscape:version="1.0 (4035a4fb49, 2020-05-01)"
   sodipodi:docname="dimsum-logo.svg">
  <defs
     id="defs2190" />
  <sodipodi:namedview
     id="base"
     pagecolor="#ffffff"
     bordercolor="#666666"
     borderopacity="1.0"
     inkscape:pageopacity="0.0"
     inkscape:pageshadow="2"
     inkscape:zoom="6.0087325"
     inkscape:cx="60.177189"
     inkscape:cy="39.723317"
     inkscape:document-units="mm"
     inkscape:current-layer="layer1"
     inkscape:document-rotation="0"
     showgrid="false"
     inkscape:window-width="2003"
     inkscape:window-height="1183"
     inkscape:window-x="382"
     inkscape:window-y="83"
     inkscape:window-maximized="0" />
  <metadata
     id="metadata2193">
    <rdf:RDF>
      <cc:Work
         rdf:about="">
        <dc:format>image/svg+xml</dc:format>
        <dc:type
           rdf:resource="http://purl.org/dc/dcmitype/StillImage" />
        <dc:title></dc:title>
      </cc:Work>
    </rdf:RDF>
  </metadata>
  <g
     inkscape:groupmode="layer"
     id="layer6"
     inkscape:label="hargow base"
     style="display:inline" />
  <g
     inkscape:groupmode="layer"
     id="layer7"
     inkscape:label="highlight"
     style="display:inline" />
  <g
     inkscape:groupmode="layer"
     id="layer8"
     inkscape:label="highlight2">
    <path
       style="display:inline;fill:#d5893d;fill-opacity:1;stroke:none;stroke-width:0.228495px;stroke-linecap:butt;stroke-linejoin:miter;stroke-opacity:1"
       d="m 3.3226908,6.1746953 c 0,0 0.446838,0.3576846 0.7261112,1.1326684 0.2792731,0.7749839 0.6144012,1.6691962 0.5585471,2.3249515 -0.055851,0.6557558 -0.167565,1.8480378 -0.4468381,2.2057228 -0.2792731,0.357685 -0.8378202,1.073055 -0.8378202,1.073055 l 0.3909831,0.476913 c 0,0 0.6702562,-0.119229 1.0053843,-0.4173 0.3351281,-0.29807 1.005384,-0.894211 1.5080761,-0.894211 0.5026922,0 2.0666236,0.894211 3.0161529,1.371125 0.9495308,0.476913 2.9602978,1.01344 4.1891018,0.178843 1.228802,-0.834599 2.290041,-1.43074 2.290041,-3.8749193 0,-2.44418 -1.117093,-4.2922184 -2.010768,-4.8883587 C 12.817987,4.2670434 10.863072,3.7901304 9.8018339,4.3862719 8.740595,4.9824126 7.6793558,5.6381685 6.8973905,6.1150815 6.1154253,6.5919946 5.8920062,6.7708369 5.3334594,6.5919946 4.7749131,6.4131514 3.8812379,5.8766245 3.6578189,5.6977823 3.4343999,5.51894 3.3226908,6.1746953 3.3226908,6.1746953 Z"
       id="path3537" />
    <path
       sodipodi:nodetypes="cssccsssscssccscsssccscsscssssscsscsscssccscsscsscscsscsscsc"
       id="path3554"
       d="m 4.4027831,8.3851609 c 0,0 0.2318445,0.6849962 0.2107677,1.211915 C 4.5924726,10.123996 4.4027831,11.346447 4.2763223,11.6626 4.1498616,11.978753 3.3226908,12.911093 3.3226908,12.911093 l 0.390983,0.476912 c 0,0 0.7523396,-0.239492 0.9631073,-0.534567 0.2107678,-0.295075 0.7376869,-0.800916 1.0327626,-0.948453 0.2950748,-0.147538 0.4957482,-0.187864 0.864148,-0.126463 0.3793819,0.06323 0.8641481,0.221308 1.1381456,0.347768 0.2739985,0.12646 0.8993505,0.401242 0.8993505,0.401242 0,0 0.6266906,0.343836 1.0741181,0.499222 0.6185071,0.2148 -0.5579186,-0.519967 -0.8319171,-0.625352 -0.2739976,-0.105384 -0.9413335,-0.486783 -0.9413335,-0.486783 0,0 -1.1796723,-0.610108 -0.8424439,-0.546868 0.3372283,0.06323 0.8947355,0.09217 1.1811369,0.104769 0.4155928,0.01828 0.907569,-9.68e-4 0.907569,-9.68e-4 0,0 0.9881837,-0.05722 1.3087967,-0.125856 0.302695,-0.0648 1.182416,-0.347239 1.460848,-0.439805 0.309008,-0.102733 -0.905852,0.09345 -1.360637,0.117182 -0.473706,0.02472 -1.6512903,-0.05766 -1.6512903,-0.05766 0,0 -0.9761461,-0.308667 -1.2617433,-0.50115 0.3658724,-0.150739 0.6122585,-0.262133 0.9467352,-0.357355 0.3420129,-0.09737 0.9704751,-0.1428768 0.9704751,-0.1428768 0,0 0.4287493,-0.00729 0.7992983,-0.098954 C 10.676296,9.789509 9.6233603,9.7099737 9.1471159,9.6674242 8.8951979,9.6449169 8.0878436,9.6008299 8.0878436,9.6008299 c 0,0 0.7500723,-0.3269128 0.9568598,-0.4235514 C 9.2624149,9.0755348 9.8073379,8.9441739 9.9999399,8.8837719 10.282557,8.7951399 10.78048,8.7584624 11.028945,8.7215022 c 0.25563,-0.038026 0.17501,-0.1287186 -0.168562,-0.1421583 -0.343682,-0.013444 -1.5300094,0.203241 -1.9710055,0.2690672 -0.3855717,0.057553 -1.1197018,0.015525 -1.1197018,0.015525 0,0 0.8838767,-0.2495567 1.1193082,-0.3668798 0.1555588,-0.07752 1.4251831,-0.8677294 1.8634381,-1.0710415 0.454705,-0.2109437 1.292149,-0.3758812 1.292149,-0.3758812 0,0 -0.758927,-0.032631 -1.025886,0.029079 -0.311387,0.07198 -0.476366,0.1161504 -0.758321,0.2545395 -0.230222,0.1129977 -0.6848253,0.3539897 -0.6848253,0.3539897 0,0 -0.3954068,0.2265171 -0.748214,0.2925491 -0.2424849,0.045384 -0.8225456,0.2289256 -1.1765308,0.2531968 -0.1346381,0.00923 -0.5833045,0.037049 -0.5833045,0.037049 0,0 0.710603,-0.2651356 1.0296088,-0.4564511 C 8.4328083,7.6144237 8.8516484,7.3449606 9.091898,7.131787 9.2503381,6.991203 9.9754869,6.3015574 9.9754869,6.3015574 c 0,0 -1.0367292,0.6735549 -1.3728329,0.823108 C 8.3772631,7.2249555 8.2082555,7.294511 7.4581307,7.5144687 7.2431343,7.5775117 6.4733063,7.6207435 6.4733063,7.6207435 c 0,0 0.9874813,-0.799673 1.2135279,-0.9830299 C 7.904164,6.4614274 8.3814473,6.0941474 8.5843789,5.8589457 8.8200836,5.5857594 9.0466032,5.0378618 9.0466032,5.0378618 c 0,0 -0.3369417,0.3462489 -0.6625068,0.5930569 -0.2183476,0.1655274 -0.5960811,0.4216938 -0.5960811,0.4216938 0,0 -0.6874048,0.4988906 -0.940326,0.6253521 C 6.5947681,6.804425 6.1310791,7.0573462 5.8570806,7.0573462 5.5830831,7.0573462 5.4355452,6.9941164 5.1615472,6.804425 4.8875489,6.6147113 4.297399,6.1720996 4.1077081,6.045639 3.918017,5.9191784 3.766168,5.650285 3.5597118,5.7084098 3.39188,5.7556604 3.3226907,6.174695 3.3226907,6.174695 c 0,0 0.4372505,0.5559392 0.5426344,0.7245534 0.1053838,0.1686142 0.3477668,0.9589928 0.537458,1.4859125 z"
       style="display:inline;fill:#e1d9a5;fill-opacity:1;stroke:none;stroke-width:0.23606px;stroke-linecap:butt;stroke-linejoin:miter;stroke-opacity:1" />
    <path
       sodipodi:nodetypes="csssssscssssssccsc"
       id="path3558"
       d="m 8.8499829,13.238074 c 0,0 0.816508,0.492737 1.7493741,0.700818 0.851287,0.189885 1.429913,0.131429 1.939064,0.05269 0.748259,-0.115708 1.436726,-0.711883 1.622912,-0.853607 0.706071,-0.537459 0.916839,-0.843072 1.148684,-1.264609 0.231845,-0.421535 0.400459,-1.296222 0.421536,-1.738834 0.02107,-0.4426125 0.03201,-1.4066489 -0.126461,-2.044448 -0.156509,-0.629879 -0.505843,-1.3383756 -0.505843,-1.3383756 0,0 0.02107,0.4742276 0.06323,0.663919 0.04216,0.1896905 0.208572,1.2157353 0.198033,1.5529636 -0.01054,0.3372283 -0.07087,1.034035 -0.1341,1.413417 -0.06323,0.379381 -0.309433,1.065081 -0.530739,1.370693 -0.221307,0.305615 -0.722408,0.722409 -0.902834,0.910474 -0.137655,0.143484 -0.730047,0.563628 -0.993507,0.647936 -0.26346,0.0843 -0.682448,0.22258 -0.945908,0.243656 -0.26346,0.02108 -0.639022,0.04853 -0.955174,0.0064 -0.316152,-0.04216 -0.860898,-0.134453 -1.0716651,-0.166068 -0.2107683,-0.03162 -0.976602,-0.156994 -0.976602,-0.156994 z"
       style="display:inline;fill:#c37832;fill-opacity:1;stroke:none;stroke-width:0.23606px;stroke-linecap:butt;stroke-linejoin:miter;stroke-opacity:1" />
    <path
       id="path3556"
       d="m 4.0471899,6.9906324 c 0.1159224,0.3161511 0.5585348,1.6123731 0.6006883,1.8126031 0.042154,0.2002291 0.094845,0.7376874 0.06323,1.0749157 -0.031615,0.3372288 -0.1369991,1.3278368 -0.2002294,1.4964498 -0.063231,0.168616 -0.3583052,0.695534 -0.4426124,0.832534 -0.084307,0.137 -0.6374799,0.700497 -0.6374799,0.700497 l 0.1737907,0.195266 c 0,0 0.3477668,-0.231845 0.4742276,-0.347766 C 4.2052658,12.63921 4.5846479,12.112289 4.7111085,11.890983 4.8375691,11.669676 5.0272603,10.921451 5.0588753,10.731761 5.0904902,10.54207 5.1853359,9.5830764 5.1747973,9.4566158 5.1642596,9.3301552 5.1221061,9.0034646 5.0588753,8.7716197 4.995645,8.5397756 4.7638004,7.6545504 4.6794934,7.5280898 4.5951864,7.4016292 4.3422648,6.8430945 4.1736505,6.6534031 4.0050364,6.4637127 3.6256544,6.0105614 3.5624241,5.9894851 3.4991942,5.9684115 3.4307868,6.1712333 3.4307868,6.1712333 c 0,0 0.4899425,0.5664778 0.6164031,0.8193991 z"
       style="fill:#f5ebeb;fill-opacity:1;stroke:none;stroke-width:0.23606px;stroke-linecap:butt;stroke-linejoin:miter;stroke-opacity:1" />
  </g>
  <g
     inkscape:label="text"
     inkscape:groupmode="layer"
     id="layer1"
     style="display:inline">
    <text
       xml:space="preserve"
       style="font-style:normal;font-variant:normal;font-weight:normal;font-stretch:normal;font-size:7.76111px;line-height:1.25;font-family:Centaur;-inkscape-font-specification:'Centaur, Normal';font-variant-ligatures:normal;font-variant-caps:normal;font-variant-numeric:normal;font-variant-east-asian:normal;fill:#a87813;fill-opacity:1;stroke:none;stroke-width:0.264583;"
       x="16.761278"
       y="11.963571"
       id="text2761"><tspan
         sodipodi:role="line"
         id="tspan2759"
         x="16.761278"
         y="11.963571"
         style="font-style:normal;font-variant:normal;font-weight:normal;font-stretch:normal;font-size:7.76111px;font-family:Centaur;-inkscape-font-specification:'Centaur, Normal';font-variant-ligatures:normal;font-variant-caps:normal;font-variant-numeric:normal;font-variant-east-asian:normal;stroke-width:0.264583;fill:#a87813;fill-opacity:1;">imSum</tspan></text>
  </g>
</svg>
