<?xml version="1.0" encoding="UTF-8" standalone="no"?>
<svg
   xmlns:osb="http://www.openswatchbook.org/uri/2009/osb"
   xmlns:dc="http://purl.org/dc/elements/1.1/"
   xmlns:cc="http://creativecommons.org/ns#"
   xmlns:rdf="http://www.w3.org/1999/02/22-rdf-syntax-ns#"
   xmlns:svg="http://www.w3.org/2000/svg"
   xmlns="http://www.w3.org/2000/svg"
   xmlns:xlink="http://www.w3.org/1999/xlink"
   xmlns:sodipodi="http://sodipodi.sourceforge.net/DTD/sodipodi-0.dtd"
   xmlns:inkscape="http://www.inkscape.org/namespaces/inkscape"
   width="40mm"
   height="20mm"
   viewBox="0 0 40 20"
   version="1.1"
   id="svg2196"
   inkscape:version="1.0 (4035a4fb49, 2020-05-01)"
   sodipodi:docname="dimsum-logo.svg">
  <defs
     id="defs2190">
    <linearGradient
       id="linearGradient5596"
       inkscape:collect="always">
      <stop
         id="stop5592"
         offset="0"
         style="stop-color:#d17852;stop-opacity:1;" />
      <stop
         id="stop5594"
         offset="1"
         style="stop-color:#d17852;stop-opacity:0;" />
    </linearGradient>
    <linearGradient
       osb:paint="solid"
       id="linearGradient3656">
      <stop
         id="stop3654"
         offset="0"
         style="stop-color:#a0690f;stop-opacity:1;" />
    </linearGradient>
    <linearGradient
       gradientUnits="userSpaceOnUse"
       y2="9.5552769"
       x2="36.85376"
       y1="9.5552769"
       x1="17.011393"
       id="linearGradient5600"
       xlink:href="#linearGradient5596"
       inkscape:collect="always" />
  </defs>
  <sodipodi:namedview
     id="base"
     pagecolor="#ffffff"
     bordercolor="#666666"
     borderopacity="1.0"
     inkscape:pageopacity="0.0"
     inkscape:pageshadow="2"
     inkscape:zoom="6.0087325"
     inkscape:cx="99.30196"
     inkscape:cy="38.681911"
     inkscape:document-units="mm"
     inkscape:current-layer="layer1"
     inkscape:document-rotation="0"
     showgrid="false"
     inkscape:window-width="2003"
     inkscape:window-height="1183"
     inkscape:window-x="382"
     inkscape:window-y="83"
     inkscape:window-maximized="0" />
  <metadata
     id="metadata2193">
    <rdf:RDF>
      <cc:Work
         rdf:about="">
        <dc:format>image/svg+xml</dc:format>
        <dc:type
           rdf:resource="http://purl.org/dc/dcmitype/StillImage" />
        <dc:title></dc:title>
      </cc:Work>
    </rdf:RDF>
  </metadata>
  <g
     inkscape:groupmode="layer"
     id="layer6"
     inkscape:label="hargow base"
     style="display:inline">
    <path
       id="path3537"
       d="m 2.4860611,6.3948607 c 0,0 0.4468381,0.3576846 0.7261112,1.1326685 0.2792731,0.7749839 0.6144012,1.6691962 0.5585471,2.3249514 -0.055851,0.6557564 -0.167565,1.8480384 -0.446838,2.2057234 -0.2792731,0.357685 -0.8378203,1.073055 -0.8378203,1.073055 l 0.3909831,0.476913 c 0,0 0.6702562,-0.119229 1.0053843,-0.417301 0.3351281,-0.298069 1.005384,-0.894211 1.508076,-0.894211 0.5026922,0 2.0666234,0.894211 3.0161534,1.371125 0.9495305,0.476913 2.9602991,1.013441 4.1891021,0.178843 1.228802,-0.834599 2.290041,-1.43074 2.290041,-3.8749187 0,-2.4441801 -1.117093,-4.2922186 -2.010768,-4.8883589 C 11.981358,4.4872088 10.026443,4.0102958 8.9652039,4.6064373 7.9039649,5.202578 6.8427262,5.8583339 6.0607608,6.3352469 5.2787956,6.81216 5.0553765,6.9910023 4.4968297,6.81216 3.9382834,6.6333168 3.0446083,6.0967899 2.8211892,5.9179477 2.5977702,5.7391054 2.4860611,6.3948607 2.4860611,6.3948607 Z"
       style="display:inline;fill:#f1b173;fill-opacity:1;stroke:#000000;stroke-width:0.18;stroke-linecap:butt;stroke-linejoin:miter;stroke-miterlimit:4;stroke-dasharray:none;stroke-opacity:1" />
  </g>
  <g
     style="display:inline"
     inkscape:label="pink base"
     id="g3615"
     inkscape:groupmode="layer">
    <path
       sodipodi:nodetypes="ccccsccscccscccsssscc"
       style="display:inline;fill:#e69691;fill-opacity:1;stroke:none;stroke-width:0.228495px;stroke-linecap:butt;stroke-linejoin:miter;stroke-opacity:1"
       d="m 5.231628,7.8286087 c 0,0 0.9499602,-0.1573666 1.9325413,-0.4532511 C 8.0332244,7.0045704 8.9335964,6.2486369 9.5441714,6.3772785 8.9048362,7.1675486 7.7063847,8.0210136 7.7063847,8.0210136 c 0,0 0.8298527,-0.2924167 1.450997,-0.6195511 0.6001147,-0.3160587 1.0176843,-0.3621589 1.4438643,-0.376485 0.287544,0.050654 0.710578,0.155162 0.875353,0.2799914 C 11.289108,7.4408066 10.61929,7.5165844 10.180423,7.6958777 9.9581386,7.7866887 9.4907274,8.2080402 9.1989234,8.7361613 10.028803,8.5937494 10.552489,8.5168795 10.973924,8.7174973 10.641185,9.1159407 9.1359105,9.2595629 8.6223792,9.5626949 c 0.8353192,0.06927 1.2939564,0.2027865 1.5465998,0.2848672 0.248391,0.080699 -0.2885914,0.5105099 -0.5391626,0.7704099 1.0153826,0.160825 1.9095456,0.145425 2.5823776,-0.188348 -0.140355,0.627209 -1.158428,1.539097 -2.6934259,1.802103 0.9513889,0.09378 2.1869249,0.213308 2.6141859,-0.04246 C 12.861591,11.753075 13.464361,11.20936 13.43492,9.3377901 13.406171,7.5101659 12.96621,6.959905 12.072535,6.3637647 11.17886,5.7676231 10.301784,5.0123737 9.2405454,5.6085152 8.1793062,6.2046559 7.6961645,6.5123824 7.1165839,6.880319 6.3932915,7.2951242 5.8541795,7.5634122 5.231628,7.8286087 Z"
       id="path3613" />
  </g>
  <g
     inkscape:groupmode="layer"
     id="layer7"
     inkscape:label="highlight"
     style="display:inline">
    <path
       style="display:inline;fill:#e1dcbe;fill-opacity:1;stroke:none;stroke-width:0.23606px;stroke-linecap:butt;stroke-linejoin:miter;stroke-opacity:1"
       d="m 3.5661534,8.605326 c 0,0 0.2318445,0.6849962 0.2107677,1.2119153 -0.021078,0.5269207 -0.2107677,1.7493717 -0.3372284,2.0655247 -0.1264608,0.316153 -0.9536316,1.248493 -0.9536316,1.248493 l 0.390983,0.476912 c 0,0 0.7523396,-0.239492 0.9631073,-0.534567 0.2107678,-0.295075 0.7376869,-0.800916 1.0327626,-0.948453 0.2950748,-0.147538 0.4957483,-0.187865 0.864148,-0.126463 0.3793818,0.06323 0.9852389,0.243325 1.4683943,0.490876 0.2685737,0.137607 1.3506897,0.522333 1.3506897,0.522333 0,0 1.0670223,0.387869 1.734616,0.290064 C 9.5112165,12.933322 8.8852051,12.726953 8.490115,12.54451 8.2235944,12.421437 7.317608,11.991677 7.317608,11.991677 c 0,0 -0.7246266,-0.315419 -1.1616843,-0.656951 0.3546321,-7.63e-4 0.7516284,0.07015 1.0380294,0.08275 0.415593,0.01828 1.1167264,0.08709 1.1167264,0.08709 0,0 0.6689434,-0.0352 0.9895564,-0.10384 0.3026952,-0.0648 1.0943501,-0.303206 1.3727821,-0.395772 -0.384514,-0.04769 -1.0049267,-0.03865 -1.4597119,-0.01492 -0.473706,0.02472 -1.2439841,-0.09068 -1.2439841,-0.09068 0,0 -0.7890052,-0.15455 -1.0746022,-0.347034 0.365872,-0.150738 0.5902414,-0.229109 0.9247184,-0.324331 0.342013,-0.09737 0.9924916,-0.142877 0.9924916,-0.142877 0,0 -0.243673,-0.06791 -0.5987535,-0.1209661 C 7.9492559,9.924708 7.7189273,9.9521485 7.2426833,9.909599 6.9907653,9.887091 8.0438102,9.5567896 8.0438102,9.5567896 c 0,0 0.3757914,-0.1177554 0.5825784,-0.214394 C 8.8441006,9.240652 10.442525,8.9189173 10.242123,8.8947728 9.9633166,8.8611822 9.5905242,8.8752303 9.3393356,8.8776143 9.0704869,8.8801659 8.7754531,8.9399146 8.4385607,9.0086596 8.0728609,9.0832829 7.6461059,9.2229089 7.1060354,9.244702 7.557094,8.9609982 8.0889156,8.7098138 8.0889156,8.7098138 c 0,0 0.4655622,-0.2385483 0.7009942,-0.3558714 0.155558,-0.07752 0.6876276,-0.4163897 1.1258828,-0.6197018 0.4547054,-0.2109437 1.2921494,-0.4639475 1.2921494,-0.4639475 0,0 -0.880018,3.939e-4 -1.146977,0.062104 C 9.7495775,7.4043771 9.0121675,7.7347628 8.7302125,7.8731519 8.4999905,7.9861496 7.7811881,8.23815 7.7811881,8.23815 c 0,0 -0.8137208,0.1714756 -1.2986282,0.1824662 C 6.8455305,8.2018013 7.3660362,8.0108924 7.6618027,7.870208 7.9240731,7.7454565 8.4655414,7.3458346 8.4655414,7.3458346 c 0,0 0.4110417,-0.3869611 0.6883522,-0.7426666 C 8.8424156,6.7363077 8.4748389,7.0288977 8.2332522,7.1868221 7.9264701,7.3873647 7.4325738,7.5234706 7.4325738,7.5234706 c 0,0 -0.6624484,0.1891904 -1.0205679,0.2616856 C 6.1702138,7.8341028 5.7754246,7.9109684 5.0363079,7.932777 5.3607177,7.5444804 6.4733063,7.1253642 6.4733063,7.1253642 c 0,0 0.4700917,-0.3813582 0.6961387,-0.5647151 C 7.386775,6.3843732 7.7099421,6.2152423 7.9128741,5.9800406 8.1485781,5.7068543 8.5512306,5.169965 8.5512306,5.169965 c 0,0 -0.5240828,0.3902821 -0.8496478,0.6370901 -0.218348,0.1655274 -0.6621307,0.4767352 -0.6621307,0.4767352 0,0 -0.7754713,0.4878823 -1.0283926,0.6143438 -0.252921,0.1264604 -0.7166102,0.3793816 -0.9906086,0.3793816 -0.2739975,0 -0.4215354,-0.06323 -0.6955334,-0.2529212 C 4.0509192,6.8348765 3.4607693,6.3922648 3.2710784,6.2658042 3.0813874,6.1393436 2.9295384,5.8704502 2.7230821,5.928575 2.5552503,5.9758256 2.486061,6.3948602 2.486061,6.3948602 c 0,0 0.4372505,0.5559392 0.5426345,0.7245534 0.1053838,0.1686142 0.3477668,0.9589929 0.5374579,1.4859124 z"
       id="path3554"
       sodipodi:nodetypes="cssccssssccsccscscsccscsscssssccsscssccsccscsccsscscsscsscsc" />
  </g>
  <g
     style="display:inline"
     inkscape:groupmode="layer"
     id="layer8"
     inkscape:label="highlight2">
    <path
       sodipodi:nodetypes="csssssscssssssccscc"
       id="path3558"
       d="m 7.9043768,13.287022 c 0,0 0.8943484,0.601683 1.8272145,0.809764 0.8512877,0.189885 1.4921857,0.123645 2.0013367,0.04491 0.748259,-0.115708 1.413374,-0.711883 1.59956,-0.853607 0.706071,-0.537459 0.901271,-0.835288 1.133116,-1.256825 0.231845,-0.421535 0.353755,-1.265086 0.374832,-1.707698 0.02107,-0.4426129 -0.0069,-1.4066493 -0.165381,-2.0444484 -0.156509,-0.629879 -0.529195,-1.3772958 -0.529195,-1.3772958 0,0 0.13783,0.5442839 0.17999,0.7339753 0.04216,0.1896905 0.208572,1.2157353 0.198033,1.5529636 -0.01054,0.3372283 -0.07087,1.0340353 -0.1341,1.4134173 -0.06323,0.379381 -0.309433,1.065081 -0.530739,1.370693 -0.221307,0.305615 -0.722408,0.722409 -0.902834,0.910474 -0.137655,0.143484 -0.730047,0.563628 -0.993507,0.647936 -0.26346,0.0843 -0.682448,0.22258 -0.945908,0.243656 -0.26346,0.02108 -0.639022,0.04853 -0.955174,0.0064 C 9.7454684,13.739173 9.2007224,13.64688 8.9899553,13.615265 8.779187,13.583645 7.9043768,13.287022 7.9043768,13.287022 Z"
       style="display:inline;fill:#e19184;fill-opacity:1;stroke:none;stroke-width:0.23606px;stroke-linecap:butt;stroke-linejoin:miter;stroke-opacity:1" />
    <path
       sodipodi:nodetypes="cssssccsssssssccc"
       id="path3556"
       d="M 3.1665272,7.2163022 C 3.2824496,7.5324533 3.642168,8.467681 3.7341906,8.7261775 3.8043646,8.9233013 3.884077,9.7610886 3.852462,10.098317 c -0.031615,0.337229 -0.1700239,1.382878 -0.2332542,1.551491 -0.063231,0.168616 -0.3032638,0.640493 -0.387571,0.777493 -0.084307,0.137 -0.6374799,0.700497 -0.6374799,0.700497 l 0.1737907,0.195266 c 0,0 0.4138165,-0.187812 0.5402773,-0.303733 0.126461,-0.115922 0.538868,-0.653851 0.6653286,-0.875157 0.1264606,-0.221307 0.32716,-0.991549 0.358775,-1.181239 0.031615,-0.189691 0.093436,-1.0936432 0.082897,-1.2201038 C 4.404688,9.6163706 4.3891108,9.0421556 4.32588,8.8103107 4.2626497,8.5784666 4.0655904,7.9788712 3.9601775,7.662078 3.8609206,7.3637854 3.5212033,6.9231476 3.352589,6.7334562 3.1839749,6.5437658 2.7504958,6.2032064 2.6872655,6.1821301 c -0.06323,-0.021074 -0.1068687,0.212021 -0.1068687,0.212021 0,0 0.4596698,0.5692298 0.5861304,0.8221511 z"
       style="fill:#f5f5eb;fill-opacity:1;stroke:none;stroke-width:0.23606px;stroke-linecap:butt;stroke-linejoin:miter;stroke-opacity:1" />
  </g>
  <g
     inkscape:label="text"
     inkscape:groupmode="layer"
     id="layer1"
     style="display:inline">
    <text
       xml:space="preserve"
       style="font-style:normal;font-variant:normal;font-weight:normal;font-stretch:normal;font-size:8.46667px;line-height:1.25;font-family:Centaur;-inkscape-font-specification:'Centaur, Normal';font-variant-ligatures:normal;font-variant-caps:normal;font-variant-numeric:normal;font-variant-east-asian:normal;fill:#030501;fill-opacity:1;stroke:none;stroke-width:0.264583"
       x="16.23601"
       y="12.183736"
       id="text2761"><tspan
         sodipodi:role="line"
         id="tspan2759"
         x="16.23601"
         y="12.183736"
         style="font-style:normal;font-variant:normal;font-weight:normal;font-stretch:normal;font-size:8.46667px;font-family:Centaur;-inkscape-font-specification:'Centaur, Normal';font-variant-ligatures:normal;font-variant-caps:normal;font-variant-numeric:normal;font-variant-east-asian:normal;fill:#030501;fill-opacity:1;stroke-width:0.264583">imSum</tspan></text>
  </g>
</svg>
