<?xml version="1.0" encoding="UTF-8" standalone="no"?>
<svg
   xmlns:osb="http://www.openswatchbook.org/uri/2009/osb"
   xmlns:dc="http://purl.org/dc/elements/1.1/"
   xmlns:cc="http://creativecommons.org/ns#"
   xmlns:rdf="http://www.w3.org/1999/02/22-rdf-syntax-ns#"
   xmlns:svg="http://www.w3.org/2000/svg"
   xmlns="http://www.w3.org/2000/svg"
   xmlns:sodipodi="http://sodipodi.sourceforge.net/DTD/sodipodi-0.dtd"
   xmlns:inkscape="http://www.inkscape.org/namespaces/inkscape"
   width="50mm"
   height="50mm"
   viewBox="0 0 50.000002 50.000002"
   version="1.1"
   id="svg1017"
   inkscape:version="1.0 (4035a4fb49, 2020-05-01)"
   sodipodi:docname="guabao.svg">
  <defs
     id="defs1011">
    <linearGradient
       osb:paint="solid"
       id="linearGradient3069">
      <stop
         id="stop3067"
         offset="0"
         style="stop-color:#a6822c;stop-opacity:1;" />
    </linearGradient>
    <linearGradient
       osb:paint="solid"
       id="linearGradient3061">
      <stop
         id="stop3059"
         offset="0"
         style="stop-color:#a6822c;stop-opacity:1;" />
    </linearGradient>
  </defs>
  <sodipodi:namedview
     id="base"
     pagecolor="#ffffff"
     bordercolor="#666666"
     borderopacity="1.0"
     inkscape:pageopacity="0.0"
     inkscape:pageshadow="2"
     inkscape:zoom="3.959798"
     inkscape:cx="101.322"
     inkscape:cy="107.71752"
     inkscape:document-units="mm"
     inkscape:current-layer="layer2"
     inkscape:document-rotation="0"
     showgrid="false"
     units="mm"
     inkscape:window-width="1846"
     inkscape:window-height="1142"
     inkscape:window-x="203"
     inkscape:window-y="46"
     inkscape:window-maximized="0" />
  <metadata
     id="metadata1014">
    <rdf:RDF>
      <cc:Work
         rdf:about="">
        <dc:format>image/svg+xml</dc:format>
        <dc:type
           rdf:resource="http://purl.org/dc/dcmitype/StillImage" />
        <dc:title />
      </cc:Work>
    </rdf:RDF>
  </metadata>
  <g
     sodipodi:insensitive="true"
     style="display:inline"
     inkscape:label="bun"
     inkscape:groupmode="layer"
     id="layer1">
    <path
       sodipodi:nodetypes="ccsssssssssscsssssc"
       id="path919"
       d="m 24.505968,12.438424 12.97656,9.763316 c 0,0 1.730205,1.050483 1.97738,2.409932 0.247171,1.359449 0.556137,3.151451 0.123585,4.140141 -0.432551,0.98869 -0.926897,3.336829 -2.657106,4.94345 -1.730208,1.606622 -6.100157,2.548798 -9.948695,2.780691 C 21.4121,36.811309 15.236997,34.683952 12.703479,33.139125 10.16996,31.594296 9.860994,29.49333 9.675615,27.763122 c -0.185379,-1.730208 0.370759,-2.966071 0.926897,-3.831175 0.556138,-0.865104 1.421242,-1.544828 2.348139,-1.730207 0.926898,-0.185381 2.052258,-1.364866 7.415176,-0.865104 4.843607,0.451368 14.521387,8.280278 15.077524,7.044416 0.556141,-1.235862 -0.185377,-2.96607 -0.185377,-2.96607 0,0 -1.074707,-1.14222 -3.460416,-1.483035 -2.595312,-0.370758 -5.808556,-0.926897 -7.785936,-1.544828 -1.97738,-0.617932 -6.241106,-3.089657 -7.10621,-4.387313 -0.865104,-1.297656 -1.606621,-2.471725 -1.050482,-3.892967 0.556137,-1.421243 3.336828,-2.100967 4.696277,-2.224553 1.359449,-0.123587 3.954761,0.556138 3.954761,0.556138 z"
       style="fill:#fffff8;fill-opacity:1;stroke:#000000;stroke-width:0.245074;stroke-linecap:round;stroke-linejoin:round;stroke-miterlimit:4;stroke-dasharray:none;stroke-opacity:1" />
    <path
       id="path921"
       d="m 20.579754,17.439336 c 0,0 1.069078,1.002261 1.937704,1.5368 0.868626,0.534539 3.741774,1.135895 3.741774,1.135895"
       style="fill:none;stroke:#000000;stroke-width:0.165;stroke-linecap:butt;stroke-linejoin:miter;stroke-miterlimit:4;stroke-dasharray:none;stroke-opacity:1" />
  </g>
  <g
     style="display:inline"
     inkscape:label="meat1"
     id="layer2"
     inkscape:groupmode="layer">
    <path
       sodipodi:nodetypes="cccccccccccccccccc"
       id="path923-1"
       d="m 33.849262,27.94441 -0.63056,0.481328 -1.083045,1.011319 -2.047564,1.827438 -0.523917,0.416362 -0.778391,0.005 -8.065414,-0.747682 -0.521085,-0.360223 0.619723,-0.560595 2.470244,-1.511002 0.973361,-0.742857 1.208583,-0.782945 0.847149,-0.07821 1.55202,0.102147 2.01696,0.124847 2.161593,0.278172 1.261529,0.104029 z"
       style="fill:#a07d28;fill-opacity:1;stroke:#000000;stroke-width:0.214;stroke-linecap:round;stroke-linejoin:round;stroke-opacity:1;stroke-miterlimit:4;stroke-dasharray:none" />
    <path
       sodipodi:nodetypes="cccccccccccccccccccc"
       id="path955-0"
       d="m 33.849262,27.94441 0.617075,1.778855 -0.437578,0.465619 -3.271587,3.157837 -0.548879,0.260657 -1.296816,-0.04303 -3.242802,-0.236101 -2.287849,-0.08802 -1.88457,-0.296318 -1.091585,-0.352875 -0.205385,-2.013045 1.153093,0.46521 3.578721,0.257966 3.854686,0.384729 0.77839,-0.005 0.38808,-0.194488 1.539666,-1.436038 0.715882,-0.607976 0.825665,-0.761628 z"
       style="fill:#9b6928;fill-opacity:1;stroke:#000000;stroke-width:0.215;stroke-linecap:round;stroke-linejoin:round;stroke-miterlimit:4;stroke-dasharray:none;stroke-opacity:1" />
    <path
       style="fill:#957120;fill-opacity:1;stroke:#000000;stroke-width:0.212;stroke-linecap:round;stroke-linejoin:round;stroke-miterlimit:4;stroke-dasharray:none;stroke-opacity:1"
       d="m 9.696585,21.887818 0.748464,0.465751 1.204657,1.091971 2.258784,1.97254 0.566633,0.449017 h 0.70615 l 7.139963,-0.86974 0.392306,-0.395337 -0.68531,-0.605165 -2.571644,-1.625506 -1.045933,-0.800847 -1.267853,-0.842779 -0.784612,-0.07907 -1.383166,0.121993 -1.799269,0.149947 -1.89636,0.317674 -1.119634,0.121993 z"
       id="path923"
       sodipodi:nodetypes="cccccccccccccccccc" />
    <path
       style="fill:#916120;fill-opacity:1;stroke:#000000;stroke-width:0.212;stroke-linecap:round;stroke-linejoin:round;stroke-miterlimit:4;stroke-dasharray:none;stroke-opacity:1"
       d="m 9.6772999,22.030347 -0.075329,1.742796 0.4993231,0.503182 3.661707,3.410451 0.554803,0.279545 1.165089,-0.05591 2.88498,-0.279545 2.052775,-0.111813 1.641431,-0.335454 0.910667,-0.391365 -0.259204,-2.190211 -0.941534,0.513938 -3.184407,0.305683 -3.406328,0.445456 h -0.70615 L 14.080599,25.658364 12.368417,24.107815 11.58553,23.451808 10.788774,22.795803 Z"
       id="path955"
       sodipodi:nodetypes="cccccccccccccccccccc" />
    <path
       sodipodi:nodetypes="cssssscccssssscc"
       id="path3247"
       d="m 10.598907,22.250188 c 0,0 0.643117,-0.233861 0.910387,-0.26727 0.267269,-0.03341 1.286234,-0.06682 1.453278,-0.06682 0.167043,0 1.419869,-0.300678 1.620321,-0.334087 0.200452,-0.03341 0.918739,0.05011 1.03567,0 0.11693,-0.05011 0.801808,-0.183748 0.985556,-0.217156 0.183748,-0.03341 0.993909,-0.108575 0.993909,-0.108575 l 0.283973,0.175396 c 0,0 -0.375847,0.116927 -0.559595,0.133637 -0.183748,0.0167 -0.902035,0.23386 -1.085782,0.250565 -0.183748,0.01671 -1.135896,0.08352 -1.353052,0.100226 -0.217157,0.01671 -0.952148,0.167043 -1.169305,0.217156 -0.217156,0.05011 -0.918739,0.133635 -1.102486,0.116931 -0.183748,-0.0167 -0.668174,0.0167 -0.835218,0.0167 -0.167043,0 -0.960499,0.183748 -0.960499,0.183748 z"
       style="fill:#9e8657;fill-opacity:1;stroke:none;stroke-width:0.265;stroke-linecap:butt;stroke-linejoin:miter;stroke-miterlimit:4;stroke-dasharray:none;stroke-opacity:1" />
    <path
       sodipodi:nodetypes="cscsccsscccc"
       id="path3249"
       d="m 10.298418,22.666637 c 0,0 -0.034,0.212734 -0.034,0.271793 0,0.05906 0.04725,0.366164 0.02362,0.448846 -0.02362,0.08268 -0.117437,0.361618 -0.120861,0.420577 l -0.0167,0.287658 0.186245,0.170135 c 0,0 0.01384,-0.153553 0.02565,-0.248047 0.01181,-0.09449 -0.0027,-0.28074 0.04307,-0.364138 0.04825,-0.08784 0.08196,-0.223707 0.09378,-0.270955 0.01181,-0.04725 -0.0049,-0.293267 0.0069,-0.340514 0.01182,-0.04725 -0.02303,-0.253181 -0.02303,-0.253181 z"
       style="fill:#9e8657;fill-opacity:1;stroke:none;stroke-width:0.264583px;stroke-linecap:butt;stroke-linejoin:miter;stroke-opacity:1" />
    <path
       sodipodi:nodetypes="cscccscccsssssscc"
       id="path3251"
       d="m 12.494851,23.937327 c 0,0 0.668173,-0.217157 1.018964,-0.183748 0.350791,0.03341 1.219418,0.0167 1.486687,-0.0167 0.26727,-0.03341 0.902035,-0.167044 1.035669,-0.183748 0.133635,-0.01671 0.668174,-0.08352 1.002261,-0.100226 0.334087,-0.0167 1.236122,-0.334087 1.403165,-0.334087 0.167044,0 0.65147,0 0.801809,0.0167 0.150339,0.01671 0.893682,-0.11693 0.893682,-0.11693 l 0.676526,0.42596 c 0,0 -0.567948,0.14199 -0.684878,0.175396 -0.116931,0.03341 -0.701582,0.200452 -0.968852,0.167044 -0.26727,-0.03341 -0.952148,0.133634 -1.219417,0.183748 -0.26727,0.05011 -0.952148,0.267269 -1.219418,0.267269 -0.267269,0 -1.236121,0.100226 -1.503391,0.133635 -0.267269,0.03341 -0.918738,0 -1.102486,0 -0.183748,0 -1.060726,0.08352 -1.060726,0.08352 z"
       style="fill:#9e8657;fill-opacity:1;stroke:none;stroke-width:0.264583px;stroke-linecap:butt;stroke-linejoin:miter;stroke-opacity:1" />
    <path
       sodipodi:nodetypes="csscccssscc"
       id="path3253"
       d="m 12.18582,24.171188 c 0,0 -0.0084,0.434312 0.02506,0.50113 0.03341,0.06682 -0.05011,0.451017 -0.05011,0.534539 0,0.08352 -0.0084,0.375847 -0.0084,0.375847 l 0.0084,0.359144 0.509481,0.501131 c 0,0 0.08352,-0.375848 0.100226,-0.45937 0.0167,-0.08352 -0.05011,-0.417609 -0.03341,-0.551244 0.0167,-0.133635 0.05012,-0.375847 0.05012,-0.442665 0,-0.06682 -0.04176,-0.30903 -0.04176,-0.30903 z"
       style="fill:#9e8657;fill-opacity:1;stroke:none;stroke-width:0.264583px;stroke-linecap:butt;stroke-linejoin:miter;stroke-opacity:1" />
    <path
       sodipodi:nodetypes="ccsscsccssscsscc"
       id="path3263"
       d="m 24.780896,27.654042 c 0,0 0.760048,-0.02504 1.060726,0.02506 0.300678,0.05011 1.202713,0.183748 1.586912,0.233863 0.384201,0.05011 1.737254,0.133633 1.987817,0.133633 0.250566,0 1.353053,0.183748 1.570209,0.200454 0.217157,0.01669 1.369756,0.100224 1.486686,0.100224 0.116933,0 0.504346,0.05803 0.504346,0.05803 l -0.184587,0.16299 c 0,0 -0.770776,-0.0039 -0.937818,-0.0039 -0.167044,0 -0.935445,-0.08352 -1.169305,-0.133633 -0.233862,-0.05012 -0.968851,-0.200454 -1.30294,-0.200454 -0.334087,0 -1.570207,-0.05011 -1.787364,-0.06682 -0.217156,-0.01669 -1.1526,-0.183747 -1.369756,-0.23386 -0.217157,-0.05011 -0.701583,-0.08352 -0.88533,-0.100226 -0.183748,-0.0167 -0.860722,0.0092 -0.860722,0.0092 z"
       style="fill:#ac8b57;fill-opacity:1;stroke:none;stroke-width:0.264583px;stroke-linecap:butt;stroke-linejoin:miter;stroke-opacity:1" />
    <path
       sodipodi:nodetypes="csssssccccssscsscc"
       id="path3265"
       d="m 21.431501,29.849652 c 0,0 0.751869,0.151351 0.969026,0.134648 0.217156,-0.0167 0.701582,-0.0167 0.88533,-0.0167 0.183748,0 1.252826,0.217157 1.353052,0.183748 0.100226,-0.03341 1.737252,0.100227 1.987818,0.133635 0.250563,0.03341 1.336347,0.150339 1.536798,0.133636 0.200454,-0.0167 1.052375,0.200451 1.202714,0.183748 0.150339,-0.01669 1.130512,0.03729 1.130512,0.03729 l 0.235539,-0.199439 c 0,0 -0.380494,-0.05501 -0.614357,-0.07171 -0.23386,-0.01669 -1.23612,-0.20045 -1.46998,-0.20045 -0.233862,0 -1.369758,-0.06682 -1.670436,-0.08352 -0.300678,-0.0167 -1.102486,-0.100226 -1.403165,-0.167044 -0.300678,-0.06682 -1.252825,-0.167045 -1.486686,-0.150339 -0.233861,0.01669 -0.701583,-0.0167 -0.968852,-0.0167 -0.26727,0 -0.551244,-0.01669 -0.7684,-0.01669 -0.217157,0 -0.617395,-0.07171 -0.617395,-0.07171 z"
       style="fill:#ac8b57;fill-opacity:1;stroke:none;stroke-width:0.264583px;stroke-linecap:butt;stroke-linejoin:miter;stroke-opacity:1" />
    <path
       sodipodi:nodetypes="cssssssccccssssssccc"
       id="path3267"
       d="m 23.810264,28.33057 c 0,0 0.431447,-0.0491 0.732125,-0.01569 0.300678,0.03341 1.115485,0.199438 1.282529,0.216142 0.167043,0.0167 1.11919,0.116932 1.286235,0.150338 0.167042,0.03341 1.135896,0.08352 1.23612,0.08352 0.100227,0 1.30294,0.03341 1.453279,0.100224 0.150339,0.06682 1.035669,0.233863 1.186008,0.233863 0.150339,0 1.156652,0.0837 1.156652,0.0837 l -0.388917,0.380148 -0.37424,0.332061 c 0,0 -0.76099,0.0226 -0.978147,-0.04421 -0.217157,-0.06682 -0.718286,-0.183748 -0.902034,-0.23386 -0.183747,-0.05011 -0.7684,-0.100227 -1.069078,-0.100227 -0.30068,0 -1.30294,-0.100227 -1.570209,-0.100227 -0.267269,0 -1.035669,-0.167042 -1.202713,-0.183747 -0.167043,-0.0167 -0.835217,-0.133634 -1.052374,-0.133634 -0.217156,0 -0.651469,-0.03341 -0.851921,0 -0.200452,0.03341 -0.915033,-0.09449 -0.915033,-0.09449 l 0.627883,-0.41544 z"
       style="fill:#ac8b57;fill-opacity:1;stroke:none;stroke-width:0.264583px;stroke-linecap:butt;stroke-linejoin:miter;stroke-opacity:1" />
    <path
       sodipodi:nodetypes="cccsccsccc"
       id="path3305"
       d="m 31.270534,30.485431 c 0,0 0.06682,0.208803 0.08352,0.30903 0.01669,0.100224 0.08352,0.392553 0.06682,0.542892 -0.01669,0.150339 0.03341,0.601355 0.03341,0.668173 0,0.06681 -0.02506,0.442666 -0.02506,0.442666 l -0.125284,0.133632 c 0,0 -0.0167,-0.609709 -0.0167,-0.743342 0,-0.133635 -0.02506,-0.65982 -0.04176,-0.760047 -0.01669,-0.100227 -0.141988,-0.41761 -0.141988,-0.41761 z"
       style="fill:#a07d28;fill-opacity:1;stroke:none;stroke-width:0.264583px;stroke-linecap:butt;stroke-linejoin:miter;stroke-opacity:1" />
    <path
       sodipodi:nodetypes="cssscccsscccc"
       id="path3307"
       d="m 31.866577,29.903766 c 0,0 0.02202,0.414621 0.05543,0.531551 0.03341,0.11693 0.150338,0.434313 0.150338,0.517834 0,0.08352 -0.04809,0.33982 -0.04809,0.423341 0,0.08352 0.08108,0.49456 0.08108,0.49456 l 0.417611,-0.384917 0.228078,-0.247107 c 0,0 -0.01053,-0.436216 -0.01053,-0.586554 0,-0.150339 -0.03341,-0.417608 -0.100227,-0.551244 -0.06682,-0.133636 -0.108998,-0.456084 -0.108998,-0.456084 l -0.06192,-0.287013 -0.252295,0.224792 z"
       style="fill:#a07d28;fill-opacity:1;stroke:none;stroke-width:0.264583px;stroke-linecap:butt;stroke-linejoin:miter;stroke-opacity:1" />
    <path
       sodipodi:nodetypes="csccccccscc"
       id="path3309"
       d="m 33.325559,28.586055 c 0,0 0.125326,0.278923 0.125326,0.349794 0,0.07087 0.08269,0.4518 0.09449,0.522671 0.01183,0.07087 0.05906,0.307105 0.07087,0.377976 0.0118,0.07087 0.09115,0.479511 0.09115,0.479511 l -0.0896,0.104873 c 0,0 -0.13423,-0.344219 -0.12242,-0.474148 0.0118,-0.129929 -0.06813,-0.319984 -0.07994,-0.390852 -0.0118,-0.07087 -0.03371,-0.472506 -0.05733,-0.519752 -0.02363,-0.04725 -0.102634,-0.382155 -0.102634,-0.382155 z"
       style="fill:#a07d28;fill-opacity:1;stroke:none;stroke-width:0.264583px;stroke-linecap:butt;stroke-linejoin:miter;stroke-opacity:1" />
  </g>
  <g
     sodipodi:insensitive="true"
     style="display:inline"
     inkscape:label="veg"
     id="layer3"
     inkscape:groupmode="layer">
    <path
       id="path1032"
       d="m 20.144444,28.048323 c 0,0 -0.425223,-0.212611 -1.063058,-0.141743 -0.637834,0.07087 -1.228422,0.02363 -1.606398,0.283483 -0.377977,0.25986 -0.543341,0.732329 -1.015811,0.803201 -0.47247,0.07087 -0.944941,-0.07087 -0.944941,-0.07087 0,0 0.8032,0.307105 1.063058,0.354354 0.259859,0.04725 0.850447,0.02363 0.992188,-0.118118 0.141741,-0.141742 -0.448847,0.472469 -0.779576,0.472469 -0.330729,0 -0.590588,-0.07087 -0.590588,-0.07087 0,0 0.661458,0.401601 0.968564,0.354354 0.307106,-0.04725 0.732329,-0.14174 0.897693,-0.307105 0.165365,-0.165364 0.165365,-0.590589 0.4016,-0.803201 0.236235,-0.212611 0.141741,-0.118117 0,0.307108 -0.141741,0.425222 -0.141741,0.803198 -0.141741,0.803198 0,0 0.141741,-0.708705 0.425223,-0.897694 0.283483,-0.188987 0.543341,-0.307105 0.921317,-0.330729 0.377976,-0.02363 0.921317,-0.07087 1.299293,-0.283483 0.377977,-0.212611 0.28568,-0.07567 0.661459,-0.590587 0.375779,-0.514916 -1.488282,0.236236 -1.488282,0.236236 z"
       style="fill:#5d9944;fill-opacity:1;stroke:none;stroke-width:0.264583px;stroke-linecap:butt;stroke-linejoin:miter;stroke-opacity:1" />
    <path
       id="path1034"
       d="m 20.43083,28.85271 c 0,0 -0.236236,-0.141743 -0.708706,-0.212611 -0.47247,-0.07087 -1.181176,-0.732325 -1.393787,-0.259858 -0.212612,0.472469 -0.708705,0.448844 -0.708705,0.448844 0,0 -0.377977,-0.09449 -0.637835,-0.165364 -0.259859,-0.07087 0.212611,0.283482 0.47247,0.4016 0.259859,0.118118 0.803199,0.283483 0.968564,0.165365 0.165365,-0.118118 0.543341,-0.425223 0.543341,-0.425223 0,0 -0.519717,0.992188 -0.944941,1.01581 -0.425223,0.02363 -1.039434,-0.590587 -1.34654,-0.519716 -0.307105,0.07087 -0.850446,0.28348 -1.063058,0.519716 -0.212611,0.236236 -0.212611,0.685083 -0.212611,0.685083 0,0 0.401599,-0.377976 0.779575,-0.448847 0.377977,-0.07087 0.87407,0.448847 1.157552,0.4016 0.283483,-0.04725 0.637835,-0.07087 0.850447,-0.307107 0.212611,-0.236236 0.685082,-0.897694 0.685082,-0.897694 l 0.212611,-0.496094 c 0,0 0.212612,-0.09449 0.566965,0.0945 0.354352,0.188987 0.732328,0.54334 1.157552,0.401598 0.425223,-0.14174 1.511904,-0.779574 1.511904,-0.779574 l 0.472471,-0.590589 c 0,0 -0.188989,0.188989 -0.637835,0.25986 -0.448847,0.07087 -0.850447,-0.283482 -1.063058,-0.566965 -0.212612,-0.283483 -0.354353,-0.307107 -0.732329,-0.307107 -0.377976,0 -1.110305,0.188989 -1.110305,0.188989 0,0 0.543341,-0.07087 0.87407,0.09449 0.330729,0.165365 0.377976,0.448847 0.496093,0.614212 0.118118,0.165365 0.377977,0.307107 0.614212,0.259858 0.236235,-0.04725 -0.283482,0.212614 -0.283482,0.212614 z"
       style="fill:#37ad44;fill-opacity:1;stroke:none;stroke-width:0.264583px;stroke-linecap:butt;stroke-linejoin:miter;stroke-opacity:1" />
    <path
       id="path3008"
       d="m 14.000097,28.016843 c 0,0 0.33073,-0.87407 0.590588,-1.063058 0.259859,-0.188988 0.448847,-0.307105 0.8032,-0.283482 0.354352,0.02363 0.685081,0.04725 0.685081,0.04725 0,0 -0.590587,-0.425223 -0.94494,-0.425223 -0.354353,0 -0.779576,0 -0.921317,0.09449 -0.141741,0.09449 0,-0.330729 0.236235,-0.47247 0.236235,-0.141741 0.732329,-0.04725 0.732329,-0.04725 0,0 -0.118117,-0.4016 -0.377976,-0.425223 -0.259859,-0.02362 -0.614211,-0.141741 -0.614211,-0.141741 0,0 0.850446,-0.188989 1.039434,-0.02362 0.188988,0.165365 0.377976,0.47247 0.637835,0.543341 0.259859,0.07087 0.141741,-0.165365 0.141741,-0.165365 0,0 -0.188988,-0.543341 -0.4016,-0.566964 -0.212611,-0.02362 -0.732329,-0.14174 -0.732329,-0.14174 0,0 0.708706,-0.307106 0.944941,-0.259859 0.236235,0.04725 0.614211,0.307106 0.732329,0.307106 0.118117,0 0.425223,0.141741 0.614211,0.401599 0.188988,0.259859 0.04725,0.685082 0.236235,0.8032 0.188988,0.118117 0.425223,0.519717 0.661458,0.519717 0.236235,0 0.992188,-0.07087 0.992188,-0.07087 0,0 0.236235,0.07087 0.519717,0.236235 0.283482,0.165364 -0.236235,0.07087 -0.661458,0.307106 -0.425223,0.236235 -0.732329,0.307105 -0.803199,0.708705 -0.07087,0.401599 -0.236236,0.755952 -0.236236,0.755952 0,0 0.118118,-0.425223 0,-0.708705 -0.118117,-0.283482 -0.307105,-0.590588 -0.118117,-0.779576 0.188988,-0.188988 -0.141741,-0.188988 -0.141741,-0.188988 0,0 -0.496094,-0.04725 -0.4016,0.377976 0.09449,0.425223 0.614211,0.590588 0.448847,0.826823 -0.165365,0.236235 -0.448847,0.732329 -0.779576,0.566964 -0.330729,-0.165364 -0.637835,-0.259858 -0.826823,-0.04725 -0.188988,0.212612 -0.330729,0.4016 -0.685082,0.354353 -0.354353,-0.04725 -0.236235,-0.283482 -0.236235,-0.283482 0,0 0,0.188988 0.330729,0.04725 0.330729,-0.141741 0.259859,-0.661459 0.47247,-0.708706 0.212612,-0.04725 0.661459,0.02362 0.850447,0.118118 0.188988,0.09449 0.4016,-0.07087 0.4016,-0.07087 0,0 -0.543341,-0.236235 -0.543341,-0.519717 0,-0.283482 -0.259859,0.141741 -0.259859,0.141741 0,0 -0.165365,0.236235 -0.496093,0.118118 -0.33073,-0.118118 -0.141742,-0.236235 -0.141742,-0.236235 0,0 0.307106,0.09449 0.496094,-0.09449 0.188988,-0.188989 0.307106,-0.566965 0.307106,-0.566965 0,0 -0.33073,0 -0.472471,0.212612 -0.141741,0.212612 -0.259858,0.259859 -0.614211,0.212612 -0.354352,-0.04725 -0.307106,-0.259859 -0.47247,0.141741 -0.165365,0.401599 0.02362,0.803199 0.02362,0.803199 0,0 -0.4016,0.09449 -0.425223,-0.141741 -0.02362,-0.236235 -0.04725,0.543341 0.188988,0.732329 0.236235,0.188988 0.04725,0.590588 0.04725,0.590588 0,0 -0.07087,-0.259859 -0.188988,-0.425224 -0.118118,-0.165364 -0.614211,-0.307105 -0.637835,-0.519717 -0.02363,-0.212612 0,-0.590588 0,-0.590588 z"
       style="fill:#7fad68;fill-opacity:1;stroke:none;stroke-width:0.264583px;stroke-linecap:butt;stroke-linejoin:miter;stroke-opacity:1" />
    <path
       style="fill:#37ad44;fill-opacity:1;stroke:none;stroke-width:0.264583px;stroke-linecap:butt;stroke-linejoin:miter;stroke-opacity:1"
       d="m 17.036638,21.268524 c 0,0 -0.169749,-0.216988 -0.585441,-0.452467 -0.415691,-0.235481 -0.840281,-1.10698 -1.208087,-0.742087 -0.367809,0.364894 -0.822485,0.165054 -0.822485,0.165054 0,0 -0.31901,-0.223668 -0.536209,-0.38296 -0.217202,-0.159288 0.0969,0.340846 0.297168,0.544244 0.20027,0.203398 0.64826,0.552495 0.844971,0.501484 0.196711,-0.05101 0.659639,-0.202264 0.659639,-0.202264 0,0 -0.840766,0.740038 -1.246212,0.609704 -0.405448,-0.130326 -0.758748,-0.92386 -1.070854,-0.967753 -0.312105,-0.04389 -0.89555,-0.04012 -1.1787,0.10423 -0.283149,0.144353 -0.444001,0.563387 -0.444001,0.563387 0,0 0.510379,-0.20895 0.888648,-0.13966 0.37827,0.06929 0.655163,0.732274 0.936748,0.789756 0.281587,0.05748 0.620867,0.162417 0.904018,0.01806 0.283149,-0.144353 0.961284,-0.592558 0.961284,-0.592558 l 0.376273,-0.386951 c 0,0 0.232353,-0.01202 0.495442,0.291405 0.263089,0.303423 0.488971,0.769695 0.936748,0.789754 0.447775,0.02006 1.690858,-0.185977 1.690858,-0.185977 l 0.652738,-0.382044 c 0,0 -0.244164,0.108709 -0.688596,0.01402 -0.444432,-0.09469 -0.692369,-0.569426 -0.789268,-0.910273 -0.0969,-0.340847 -0.220759,-0.413698 -0.57363,-0.549152 -0.352871,-0.135455 -1.104287,-0.221461 -1.104287,-0.221461 0,0 0.53265,0.128553 0.782152,0.401452 0.249501,0.272904 0.192019,0.554489 0.243029,0.7512 0.05101,0.196712 0.242815,0.422164 0.480292,0.462713 0.237477,0.04055 -0.340848,0.0969 -0.340848,0.0969 z"
       id="path1034-0" />
    <path
       style="fill:#5d9944;fill-opacity:1;stroke:none;stroke-width:0.264583px;stroke-linecap:butt;stroke-linejoin:miter;stroke-opacity:1"
       d="m 25.42437,28.983634 c 0,0 0.425223,-0.212611 1.063058,-0.141743 0.637834,0.07087 1.228422,0.02363 1.606398,0.283483 0.377977,0.25986 0.543341,0.732329 1.015811,0.803201 0.47247,0.07087 0.944941,-0.07087 0.944941,-0.07087 0,0 -0.8032,0.307105 -1.063058,0.354354 -0.259859,0.04725 -0.850447,0.02363 -0.992188,-0.118118 -0.141741,-0.141742 0.448847,0.472469 0.779576,0.472469 0.330729,0 0.590588,-0.07087 0.590588,-0.07087 0,0 -0.661458,0.401601 -0.968564,0.354354 -0.307106,-0.04725 -0.732329,-0.14174 -0.897693,-0.307105 -0.165365,-0.165364 -0.165365,-0.590589 -0.4016,-0.803201 -0.236235,-0.212611 -0.141741,-0.118117 0,0.307108 0.141741,0.425222 0.141741,0.803198 0.141741,0.803198 0,0 -0.141741,-0.708705 -0.425223,-0.897694 -0.283483,-0.188987 -0.543341,-0.307105 -0.921317,-0.330729 -0.377976,-0.02363 -0.921317,-0.07087 -1.299293,-0.283483 -0.377977,-0.212611 -0.28568,-0.07567 -0.661459,-0.590587 -0.375779,-0.514916 1.488282,0.236236 1.488282,0.236236 z"
       id="path1032-9" />
    <path
       style="fill:#7fad68;fill-opacity:1;stroke:none;stroke-width:0.264583px;stroke-linecap:butt;stroke-linejoin:miter;stroke-opacity:1"
       d="m 23.064782,27.448543 c 0,0 0.622001,-0.697492 0.932327,-0.780803 0.310326,-0.08331 0.529091,-0.125854 0.851442,0.02319 0.322348,0.149049 0.622646,0.289623 0.622646,0.289623 0,0 -0.398974,-0.608627 -0.729791,-0.735616 -0.330817,-0.126989 -0.727797,-0.279375 -0.893986,-0.241956 -0.166189,0.03742 0.118523,-0.308763 0.389862,-0.35643 0.27134,-0.04767 0.700621,0.218331 0.700621,0.218331 0,0 0.03365,-0.417255 -0.200484,-0.532434 -0.234135,-0.115176 -0.52262,-0.35244 -0.52262,-0.35244 0,0 0.861687,0.128336 0.97886,0.350449 0.117174,0.222108 0.183552,0.576543 0.400754,0.735832 0.217202,0.159288 0.191588,-0.103586 0.191588,-0.103586 0,0 0.01828,-0.57498 -0.171744,-0.673227 -0.190025,-0.09824 -0.632893,-0.394769 -0.632893,-0.394769 0,0 0.771691,-0.03273 0.975303,0.09604 0.203612,0.128771 0.463359,0.506822 0.573631,0.549151 0.110272,0.04233 0.346185,0.284713 0.429496,0.595039 0.08331,0.310326 -0.2014,0.656512 -0.0673,0.834511 0.134106,0.177999 0.21073,0.637584 0.431274,0.722243 0.220545,0.08466 0.951685,0.289405 0.951685,0.289405 0,0 0.195147,0.150822 0.400539,0.406794 0.205392,0.255972 -0.245942,-0.0185 -0.727582,0.04966 -0.481639,0.06816 -0.793744,0.02426 -1.003828,0.373793 -0.210083,0.349527 -0.491454,0.621082 -0.491454,0.621082 0,0 0.262659,-0.35465 0.253977,-0.661633 -0.0087,-0.306983 -0.07506,-0.661418 0.169104,-0.770126 0.244162,-0.108708 -0.0646,-0.227231 -0.0646,-0.227231 0,0 -0.446211,-0.221896 -0.51038,0.20895 -0.06417,0.430842 0.361767,0.771475 0.122728,0.932758 -0.239041,0.161283 -0.681478,0.522836 -0.930979,0.249932 -0.249501,-0.272903 -0.502345,-0.471178 -0.754973,-0.340419 -0.252629,0.130764 -0.452682,0.256404 -0.766568,0.08531 -0.313884,-0.1711 -0.118953,-0.349312 -0.118953,-0.349312 0,0 -0.06773,0.176435 0.291829,0.162634 0.359558,-0.0138 0.479645,-0.5244 0.695066,-0.492316 0.215424,0.03208 0.609061,0.259097 0.751631,0.415046 0.142574,0.155941 0.400324,0.07776 0.400324,0.07776 0,0 -0.422594,-0.41526 -0.321003,-0.679913 0.101591,-0.264653 -0.293395,0.0392 -0.293395,0.0392 0,0 -0.23904,0.161283 -0.505472,-0.06751 -0.266433,-0.228796 -0.04767,-0.27134 -0.04767,-0.27134 0,0 0.252846,0.198271 0.497006,0.08957 0.244163,-0.108709 0.489891,-0.41925 0.489891,-0.41925 0,0 -0.308764,-0.118523 -0.517283,0.02917 -0.20852,0.147695 -0.335724,0.149474 -0.649609,-0.02162 -0.313883,-0.1711 -0.193583,-0.352656 -0.491884,-0.03699 -0.298302,0.315663 -0.26579,0.758315 -0.26579,0.758315 0,0 -0.408788,-0.05571 -0.346184,-0.284712 0.06261,-0.229009 -0.238828,0.490319 -0.08601,0.751415 0.152817,0.261094 -0.167536,0.568294 -0.167536,0.568294 0,0 0.02696,-0.267997 -0.02405,-0.464708 -0.05101,-0.19671 -0.463359,-0.506821 -0.40922,-0.713777 0.05413,-0.206959 0.211647,-0.551362 0.211647,-0.551362 z"
       id="path3008-5" />
    <path
       style="display:inline;fill:#76af5e;fill-opacity:1;stroke:none;stroke-width:0.347768px;stroke-linecap:butt;stroke-linejoin:miter;stroke-opacity:1"
       d="m 19.542165,27.144158 c 0,0 0.601748,0.305786 0.972048,0.969813 0.370292,0.664028 0.86729,1.219412 0.78919,1.727683 -0.0781,0.508276 -0.602265,0.919663 -0.353073,1.421216 0.249197,0.501553 0.788758,0.891097 0.788758,0.891097 0,0 -1.007626,-0.627349 -1.262411,-0.857806 -0.254825,-0.230424 -0.655045,-0.823143 -0.565251,-1.037083 0.08979,-0.213938 -0.316579,0.689915 -0.07438,1.014867 0.242189,0.324951 0.52927,0.542936 0.52927,0.542936 0,0 -1.03285,-0.438329 -1.19321,-0.764965 -0.160359,-0.326632 -0.342701,-0.79421 -0.237956,-1.043803 0.104741,-0.249596 0.685484,-0.473614 0.802847,-0.817737 0.117371,-0.344117 0.05754,-0.20149 -0.419421,0.161793 -0.476937,0.363284 -0.993142,0.562414 -0.993142,0.562414 0,0 0.864093,-0.512633 0.914613,-0.890722 0.0505,-0.378099 0.02154,-0.695643 -0.222993,-1.079464 -0.244517,-0.383822 -0.577884,-0.942558 -0.5643,-1.425942 0.01364,-0.483383 -0.105857,-0.320557 0.322193,-0.96104 0.428053,-0.640488 0.767224,1.586738 0.767224,1.586738 z"
       id="path1032-7" />
  </g>
  <g
     sodipodi:insensitive="true"
     style="display:inline"
     inkscape:label="meat2"
     id="layer4"
     inkscape:groupmode="layer">
    <g
       style="display:inline"
       id="g3155"
       transform="translate(-10.705161,-18.427928)">
      <path
         sodipodi:nodetypes="cccccccccccccccccc"
         id="path923-6"
         d="m 25.657038,42.165578 0.675875,0.481933 0.868812,0.991933 1.543384,1.056747 1.386882,1.663133 0.717614,0.11693 7.359496,-1.184975 0.300604,-0.524672 -0.121139,-0.239595 -3.433901,-2.204281 -0.727016,-0.706354 -1.326912,-0.641979 -0.462582,-0.09864 -1.065783,0.08858 -3.177378,0.375456 -1.228186,0.04205 -1.086225,0.372557 z"
         style="fill:#af8638;fill-opacity:1;stroke:#000000;stroke-width:0.311888px;stroke-linecap:butt;stroke-linejoin:miter;stroke-opacity:1" />
      <path
         sodipodi:nodetypes="cccccccccccccccccccc"
         id="path955-5"
         d="m 25.565164,42.324269 -0.240695,1.223079 0.286713,0.76304 3.047495,2.772617 1.027274,1.248109 0.952476,0.109454 2.247146,-0.421286 4.273385,-0.418919 1.216207,-0.09922 0.461821,-0.556729 -0.235581,-2.048471 -0.941534,0.513938 -1.483513,-0.0014 -5.326753,1.067773 -0.717614,-0.11693 -0.977003,-1.230279 -0.886895,-0.928088 -1.066368,-0.561513 -0.868812,-0.991933 z"
         style="fill:#9a6c2c;fill-opacity:1;stroke:#000000;stroke-width:0.312379;stroke-linecap:round;stroke-linejoin:round;stroke-miterlimit:4;stroke-dasharray:none;stroke-opacity:1" />
      <path
         sodipodi:nodetypes="cscsscccssssscc"
         id="path3141"
         d="m 26.533365,42.634982 c 0,0 0.410743,-0.239353 0.811648,-0.306171 0.400904,-0.06682 1.954408,-0.11693 2.221677,-0.133636 0.267271,-0.01669 1.637027,-0.150339 1.687139,-0.183748 0.05012,-0.03341 1.553504,-0.183747 1.703843,-0.250565 0.150341,-0.06682 0.718289,-0.242211 0.718289,-0.242211 l 0.47209,0.230226 0.629438,0.591572 c 0,0 -0.483468,0.07188 -0.700625,0.155404 -0.217156,0.08352 -1.135895,0.317384 -1.5368,0.317384 -0.400905,0 -1.486686,-0.03341 -1.854182,0.05011 -0.367495,0.08352 -1.486688,0.233862 -1.720548,0.367495 -0.23386,0.133636 -0.952148,0.06682 -1.186008,0.03341 -0.23386,-0.03341 -0.768401,-0.08351 -0.768401,-0.08351 z"
         style="fill:#d3bc77;fill-opacity:1;stroke:none;stroke-width:0.264583px;stroke-linecap:butt;stroke-linejoin:miter;stroke-opacity:1" />
      <path
         sodipodi:nodetypes="cscccssscc"
         id="path3143"
         d="m 26.309289,42.836498 c 0,0 -0.163967,0.288223 -0.175779,0.441774 -0.01181,0.153553 0.03543,0.543342 0.01181,0.649649 -0.02363,0.106304 -0.0059,0.626022 -0.0059,0.626022 l 0.478378,0.437034 c 0,0 0.124024,-0.218516 0.124024,-0.277576 0,-0.05906 -0.08859,-0.401599 -0.02953,-0.543341 0.05906,-0.14174 0.147644,-0.3012 0.124022,-0.407504 -0.02363,-0.106307 0.03329,-0.317068 0.03329,-0.317068 z"
         style="fill:#d3bc77;fill-opacity:1;stroke:none;stroke-width:0.264583px;stroke-linecap:butt;stroke-linejoin:miter;stroke-opacity:1" />
      <path
         sodipodi:nodetypes="ccsssscccsssssssscc"
         id="path3145"
         d="m 28.873837,44.589379 c 0,0 0.8032,-0.283484 1.074869,-0.295295 0.271672,-0.0118 1.399693,0.03544 1.7068,0.02363 0.307105,-0.0118 1.133928,-0.307107 1.334728,-0.34254 0.2008,-0.03544 0.54334,-0.02363 0.685083,-0.02363 0.14174,0 0.909505,-0.330729 1.110303,-0.366164 0.2008,-0.03544 0.850447,-0.177176 0.944941,-0.188987 0.09449,-0.01183 0.49718,-0.05071 0.49718,-0.05071 l 0.926557,0.587723 c 0,0 -0.214294,0.183501 -0.356033,0.242559 -0.14174,0.05906 -0.760597,0.177178 -0.973209,0.188989 -0.212613,0.0118 -0.686515,-0.01586 -0.946375,0.04319 -0.259858,0.05906 -0.459223,0.287537 -0.648213,0.322973 -0.188989,0.03544 -0.93313,0.259858 -1.145741,0.271669 -0.212611,0.0118 -1.145738,0.08268 -1.370163,0.106307 -0.224422,0.02363 -0.850445,-0.05906 -1.039434,-0.02363 -0.188989,0.03544 -0.484283,0.194895 -0.696894,0.230331 -0.212611,0.03544 -0.454752,1e-6 -0.454752,1e-6 z"
         style="fill:#cab271;fill-opacity:1;stroke:none;stroke-width:0.264583px;stroke-linecap:butt;stroke-linejoin:miter;stroke-opacity:1" />
      <path
         sodipodi:nodetypes="ccssccssccscc"
         id="path3147"
         d="m 28.584448,44.896484 c 0,0 -0.09449,0.14174 -0.106304,0.283482 -0.0118,0.14174 0.02219,0.432143 0.01037,0.514826 -0.01183,0.08268 -0.136131,0.338608 -0.136131,0.444915 0,0.106307 -0.01601,0.435601 -0.01601,0.435601 l 0.475091,0.437751 c 0,0 0.127304,-0.226694 0.174554,-0.333 0.04725,-0.106307 0.0029,-0.275008 0.02648,-0.416748 0.02363,-0.14174 0.1409,-0.357465 0.129089,-0.475583 0.01323,-0.134823 0.04797,-0.362704 0.04797,-0.362704 0,0 -0.149849,-0.157485 -0.197095,-0.228354 -0.04725,-0.07087 -0.357938,-0.375356 -0.357938,-0.375356 z"
         style="fill:#cab271;fill-opacity:1;stroke:none;stroke-width:0.264583px;stroke-linecap:butt;stroke-linejoin:miter;stroke-opacity:1" />
    </g>
  </g>
</svg>
