<?xml version="1.0" encoding="UTF-8" standalone="no"?>
<svg
   xmlns:dc="http://purl.org/dc/elements/1.1/"
   xmlns:cc="http://creativecommons.org/ns#"
   xmlns:rdf="http://www.w3.org/1999/02/22-rdf-syntax-ns#"
   xmlns:svg="http://www.w3.org/2000/svg"
   xmlns="http://www.w3.org/2000/svg"
   xmlns:sodipodi="http://sodipodi.sourceforge.net/DTD/sodipodi-0.dtd"
   xmlns:inkscape="http://www.inkscape.org/namespaces/inkscape"
   sodipodi:docname="rabbit_icon.svg"
   inkscape:version="1.0 (4035a4fb49, 2020-05-01)"
   id="svg8"
   version="1.1"
   viewBox="0 0 13.229166 13.229167"
   height="50"
   width="50">
  <defs
     id="defs2" />
  <sodipodi:namedview
     inkscape:window-maximized="0"
     inkscape:window-y="163"
     inkscape:window-x="182"
     inkscape:window-height="1087"
     inkscape:window-width="1998"
     units="px"
     showgrid="false"
     inkscape:document-rotation="0"
     inkscape:current-layer="layer1"
     inkscape:document-units="mm"
     inkscape:cy="26.286126"
     inkscape:cx="32.58572"
     inkscape:zoom="15.839192"
     inkscape:pageshadow="2"
     inkscape:pageopacity="0.0"
     borderopacity="1.0"
     bordercolor="#666666"
     pagecolor="#ffffff"
     id="base" />
  <metadata
     id="metadata5">
    <rdf:RDF>
      <cc:Work
         rdf:about="">
        <dc:format>image/svg+xml</dc:format>
        <dc:type
           rdf:resource="http://purl.org/dc/dcmitype/StillImage" />
        <dc:title></dc:title>
      </cc:Work>
    </rdf:RDF>
  </metadata>
  <g
     id="layer1"
     inkscape:groupmode="layer"
     inkscape:label="Layer 1">
    <path
       sodipodi:nodetypes="cscsssscscssscssscsssssssssscsscscsscssscssc"
       id="path833"
       d="M 11.410307,5.7822057 C 11.304325,5.3244001 11.39603,4.473695 10.775507,4.0745836 10.154984,3.6754724 9.6762402,3.7581061 9.6762402,3.7581061 c 0,0 -0.2540106,-0.7250575 -0.9040827,-1.2469727 C 8.1220853,1.9892187 7.5725486,1.5664838 7.1884151,1.6892872 6.8042815,1.8120907 6.7984628,2.279083 7.0110065,2.4592005 7.3064166,2.7095421 7.6854364,2.6617822 8.169255,2.9693521 8.7897009,3.3637777 9.2153497,3.914002 9.2153497,3.914002 c 0,0 -0.1773311,0.068479 -0.3841724,0.2526845 -0.206841,0.1842051 -0.4603355,0.187441 -0.4603355,0.187441 0,0 -0.3736135,-0.6867738 -1.0248839,-1.1725722 C 6.3215172,2.4174003 5.3804037,2.5246382 4.4939417,2.8316471 3.6074798,3.1386559 3.089325,3.8776176 2.8529352,4.3688316 2.6165453,4.8600456 2.376472,5.7151762 2.405695,6.0540449 c 0,0 -0.3230818,-0.1399114 -0.5332713,-0.036161 -0.1892261,0.093403 -0.3654799,0.3601573 -0.3182329,0.6612603 0.047591,0.3032973 0.329175,0.4869113 0.6391716,0.4725208 0.3451852,-0.016024 0.497455,-0.2995993 0.497455,-0.2995993 0,0 0.1763409,0.2263295 0.4810601,0.2888606 0.4386136,0.090007 0.7581532,-0.050637 1.0951333,0.00139 0.2130682,0.032898 0.6746381,0.071536 0.8908056,0.24886 C 5.2972938,7.5055908 5.2218884,7.7966724 4.9819383,7.9096095 4.8136351,7.9888245 4.5345197,8.114154 4.2962099,8.2113713 4.0099194,8.328162 3.9923697,8.6103205 4.0519919,8.8148618 c 0.064222,0.2203213 0.3531487,0.3431275 0.6299962,0.3960337 0.4204855,0.080356 0.6552433,0.1576058 1.0402143,0.3089984 0.225575,0.088709 0.5746378,0.4246727 0.7674614,0.6840061 0.1515223,0.203787 0.355102,0.682754 0.8776756,0.910453 0.327803,0.142832 0.6734103,0.158281 0.99274,0.0065 C 8.4374579,10.814041 8.2833431,10.443689 7.6087408,9.8608585 7.2912727,9.5865781 6.9146149,9.3037822 6.5377038,9.0776048 6.185795,8.866431 5.8454969,8.7376794 5.5113462,8.6247481 5.7782537,8.4241173 6.6168725,7.9473025 6.879973,7.5858677 7.4420471,6.813717 7.2640146,5.8925398 6.7177276,5.5474856 7.3103219,5.9792255 7.2570605,6.3480457 7.2803099,6.5840207 7.3019669,6.8038337 7.2110831,7.1528139 7.1015091,7.3264222 6.9873556,7.5072864 6.2184755,8.1981571 5.9644553,8.414411 6.3708421,8.4113093 6.8462587,8.214762 7.1463475,8.0534268 7.3490966,7.9444239 7.7197309,7.7110911 7.932139,7.4723543 8.1068828,7.2759503 8.4416572,6.9221181 8.5241297,6.6351604 c 0.068424,-0.2380779 0.193461,-1.0095277 0.193461,-1.0095277 0,0 0.2574313,0.3114532 0.6633804,0.501632 C 9.7347492,6.2930025 10.317071,6.3457104 10.605005,6.291873 10.882754,6.23994 11.46042,6.0411225 11.410307,5.7822057 Z"
       style="fill:none;stroke:#000000;stroke-width:0.239;stroke-linecap:round;stroke-linejoin:round;stroke-miterlimit:4;stroke-dasharray:none;stroke-opacity:1" />
    <ellipse
       ry="0.12528259"
       rx="0.050113037"
       cy="5.3704472"
       cx="10.740894"
       id="path835"
       style="fill:#e69691;stroke:#000000;stroke-width:0.18;stroke-linecap:round;stroke-linejoin:round" />
  </g>
</svg>
