<?xml version="1.0" encoding="UTF-8" standalone="no"?>
<svg
   xmlns:dc="http://purl.org/dc/elements/1.1/"
   xmlns:cc="http://creativecommons.org/ns#"
   xmlns:rdf="http://www.w3.org/1999/02/22-rdf-syntax-ns#"
   xmlns:svg="http://www.w3.org/2000/svg"
   xmlns="http://www.w3.org/2000/svg"
   xmlns:sodipodi="http://sodipodi.sourceforge.net/DTD/sodipodi-0.dtd"
   xmlns:inkscape="http://www.inkscape.org/namespaces/inkscape"
   width="50"
   height="50"
   viewBox="0 0 13.229166 13.229167"
   version="1.1"
   id="svg8"
   inkscape:version="1.0 (4035a4fb49, 2020-05-01)"
   sodipodi:docname="dragon.svg">
  <defs
     id="defs2">
    <pattern
       id="EMFhbasepattern"
       patternUnits="userSpaceOnUse"
       width="6"
       height="6"
       x="0"
       y="0" />
  </defs>
  <sodipodi:namedview
     id="base"
     pagecolor="#ffffff"
     bordercolor="#666666"
     borderopacity="1.0"
     inkscape:pageopacity="0.0"
     inkscape:pageshadow="2"
     inkscape:zoom="11.313709"
     inkscape:cx="42.925122"
     inkscape:cy="17.24254"
     inkscape:document-units="mm"
     inkscape:current-layer="layer5"
     inkscape:document-rotation="0"
     showgrid="false"
     units="px"
     inkscape:window-width="2040"
     inkscape:window-height="1103"
     inkscape:window-x="377"
     inkscape:window-y="181"
     inkscape:window-maximized="0" />
  <metadata
     id="metadata5">
    <rdf:RDF>
      <cc:Work
         rdf:about="">
        <dc:format>image/svg+xml</dc:format>
        <dc:type
           rdf:resource="http://purl.org/dc/dcmitype/StillImage" />
        <dc:title />
      </cc:Work>
    </rdf:RDF>
  </metadata>
  <g
     style="display:inline"
     inkscape:label="Layer 1"
     inkscape:groupmode="layer"
     id="layer1">
    <path
       style="fill:#474655;fill-opacity:1;stroke-width:0.307799;stroke-linecap:round;stroke-linejoin:round"
       id="path1558"
       d="m 10.984801,7.1174902 c 0.262401,-0.1411678 0.558516,-0.2653731 0.776961,-0.4700625 0.06124,-0.057382 0.07778,-0.08432 0.129544,-0.1507921 0.123807,-0.1625194 0.177942,-0.3566649 0.233323,-0.5458197 0.05726,-0.208592 0.02886,-0.3555867 -0.04713,-0.5549749 C 11.998614,5.2084777 11.900904,5.1156063 11.726013,5.0027584 11.538615,4.8945236 11.326579,4.8439238 11.110504,4.8134607 10.900653,4.7796261 10.713011,4.7922733 10.506133,4.8332291 10.122105,4.920445 9.7676717,5.0856449 9.4537065,5.3117642 9.3489922,5.4021624 9.2825626,5.5211115 9.1749096,5.6087393 c 0,0 0.549538,-0.2093761 0.549538,-0.2093761 v 0 c 0.094333,-0.094765 0.165493,-0.2090583 0.2776664,-0.288101 0.1818,-0.1149242 0.204566,-0.1268158 -0.3645937,0.1833249 -0.027834,0.015168 0.057934,-0.026586 0.087743,-0.038117 0.1025542,-0.039665 0.209771,-0.068939 0.3165327,-0.096987 0.205884,-0.047029 0.379717,-0.064204 0.591139,-0.035298 0.209453,0.024677 0.415345,0.067273 0.598441,0.1692584 0.164834,0.106198 0.257238,0.1863574 0.334818,0.3629999 0.07377,0.1960473 0.08536,0.3256619 0.02772,0.5277753 -0.05375,0.1848696 -0.109294,0.371296 -0.239112,0.525227 -0.06145,0.070273 -0.06714,0.081969 -0.136412,0.142041 -0.170856,0.1481645 -0.643965,0.3990325 0.231465,-0.081018 0,0 -0.465062,0.3470217 -0.465062,0.3470217 z" />
    <path
       sodipodi:nodetypes="cccccsccccc"
       style="fill:#050900;fill-opacity:1;stroke-width:0.163561;stroke-linecap:round;stroke-linejoin:round"
       id="path1560"
       d="m 9.2936818,5.555468 c -0.061186,-0.048 -0.097163,-0.1299551 -0.1897265,-0.1405054 -0.073628,-0.00849 -0.1285112,-0.00888 -0.2001883,0.00429 -0.239351,0.079277 -0.3015433,0.18232 -0.3959809,0.302128 l 0.099711,-0.042425 0.088506,-0.0988 c 0,0 0.064361,-0.045335 0.1150467,-0.074461 0.063788,-0.024121 0.1115244,-0.039093 0.1856244,-0.033489 0.090075,0.00817 0.1661296,0.089057 0.1766055,0.1740383 l 0.033991,0.013569 z" />
    <path
       style="fill:#e5322d;fill-opacity:1;stroke-width:0.250288;stroke-linecap:round;stroke-linejoin:round"
       id="path1568"
       d="M 12.112687,6.0193985 C 12.338647,5.8675253 12.627199,5.7170006 12.82825,5.461814 12.918279,5.3678086 13.009761,5.1844896 13.032164,5.0823142 13.078738,4.778291 12.939224,4.7127409 12.751792,4.4631158 12.711542,4.4095116 12.50144,4.2802764 12.422361,4.2377995 12.137313,4.0787315 11.671964,4.108731 11.761491,3.8317418 c 0.05475,-0.169399 0.375296,-0.2949624 0.644055,-0.4423397 0.354409,-0.2342758 0.547048,-0.5119826 0.635536,-0.6254838 l 0.03518,-0.2350022 -0.102388,0.1997188 c -0.162302,0.3165875 -0.231648,0.3129569 -0.512245,0.5589445 -0.22787,0.1779483 -0.564343,0.2538557 -0.684987,0.3716853 -0.05765,0.069985 -0.149872,0.1433834 -0.133441,0.2431241 0.0044,0.083644 0.074,0.1640881 0.149811,0.2022793 0.08183,0.052826 0.372821,0.1141552 0.549032,0.1816871 0.204137,0.066703 0.432163,0.3120997 0.499137,0.4156045 0.17066,0.263744 0.134503,0.3300585 -0.0513,0.6721548 -0.03517,0.1241577 -0.294881,0.2686743 -0.399775,0.3786503 -0.02455,0.025746 -0.05364,0.049281 -0.0828,0.072481 -0.02412,0.019211 -0.104107,0.071241 -0.07675,0.054533 0.12543,-0.076636 0.233733,-0.1538786 0.357481,-0.2320313 l -0.475389,0.3716537 z"
       sodipodi:nodetypes="cccscscccscccccscsccccc" />
    <path
       sodipodi:nodetypes="ccccccssssscccccscsssccccscccscccc"
       d="m 11.211028,6.603348 c -0.04402,0.00306 -0.155619,0.078182 -0.198689,0.069559 -0.0306,-0.00802 -0.07032,-0.02823 -0.09276,-0.059335 -0.02019,-0.023496 -0.02867,-0.046334 -0.03446,-0.073538 -0.0055,-0.032541 -0.01171,-0.062226 0.01703,-0.097445 0.01141,-0.022528 0.03069,-0.03305 0.05316,-0.046158 0.02787,-0.01765 0.03478,-0.01273 0.05845,-0.014845 0.02433,-0.00217 0.03825,0.00276 0.06302,0.00976 0.02374,0.0067 0.04376,0.016426 0.05896,0.031941 0.01899,0.01937 0.04012,0.047966 0.05562,0.081405 0.01376,0.029693 0.02277,0.06936 0.0032,0.11314 -0.01093,0.024561 -0.02061,0.041566 -0.06732,0.086736 -0.0315,0.024971 -0.04138,0.050037 -0.06327,0.065907 -0.128166,0.079929 -0.01291,0.010909 0.0063,-0.022205 -0.127782,0.052438 -0.06473,0.029602 -0.188848,0.069379 l -0.09622,0.07456 v 0 c 0.126456,-0.040233 0.06237,-0.01738 0.191974,-0.069267 0.06787,-0.03727 0.149225,-0.066427 0.199447,-0.1054551 0.05155,-0.040065 0.09872,-0.060465 0.132802,-0.097353 0.03438,-0.037216 0.05161,-0.062891 0.05262,-0.081432 0.0018,-0.031988 0.0077,-0.093996 -0.01574,-0.1303051 -0.02501,-0.03862 -0.04606,-0.083785 -0.08113,-0.1034065 -0.01904,-0.010652 -0.06498,-0.033026 -0.09898,-0.044574 -0.0457,-0.00523 -0.06371,-0.0031 -0.111548,-0.00388 -0.04243,0.012572 -0.06466,0.038513 -0.09929,0.06979 -0.02948,0.026616 -0.04733,0.060508 -0.06938,0.093996 -0.0044,0.00983 -0.0097,0.019264 -0.01299,0.029485 -0.01452,0.045037 -0.01492,0.064068 -0.0079,0.1092265 0.0026,0.00728 0.01317,0.035572 0.02625,0.056416 0.01333,0.021226 0.05755,0.057164 0.09258,0.066782 0.04299,0.00864 0.07225,0.00318 0.116314,0.0014 l 0.04711,-0.023815 z"
       id="path1624"
       style="fill:#080000;fill-opacity:1;stroke-width:0.295601;stroke-linecap:round;stroke-linejoin:round" />
  </g>
  <g
     style="display:inline"
     inkscape:label="Layer 3"
     id="layer3"
     inkscape:groupmode="layer">
    <path
       sodipodi:nodetypes="cscccccsccccccsssscccccccccsccccccccccssccccsccccccccc"
       style="fill:#474655;fill-opacity:1;stroke-width:0.313806;stroke-linecap:round;stroke-linejoin:round"
       id="path1626"
       d="M 0.37315237,7.9020555 C 0.67913784,7.676513 0.77852879,7.6172514 0.93398102,7.565899 1.089128,7.5146473 1.5175926,7.4215844 1.1820225,7.5505673 1.0085344,7.6361823 0.7960395,7.73198 0.60456048,7.8699367 0.41416427,8.0012825 0.1145785,8.185332 0.26882215,8.1507915 0.47223724,8.1063275 0.88833824,7.9316582 1.1423302,7.8237255 1.440512,7.7110111 1.7135441,7.6214152 1.966521,7.5363753 2.1624791,7.5052557 2.4799764,7.428754 2.6807999,7.408399 2.9082716,7.385344 3.1721623,7.385662 3.3569406,7.411239 c 0.1846231,0.053107 0.4260306,0.08128 0.5885585,0.1684746 0.1082626,0.05695 0.214703,0.1164937 0.3210734,0.1761485 0.095163,0.065692 0.1995837,0.1190963 0.2999211,0.1780379 0.09845,0.060243 0.2036474,0.1104814 0.313917,0.1513136 0.094134,0.024942 0.1808056,0.064913 0.2752033,0.089004 0.095007,0.026361 0.320092,0.114839 0.4176117,0.132699 0.1122415,0.020556 0.3641744,0.029096 0.4944005,0.039587 0.1216094,0.00979 0.3274205,-0.00493 0.4452337,-0.00585 C 6.654243,8.3395336 6.761479,8.3054146 6.8907703,8.2639616 7.0775466,8.2040739 7.120926,8.1317938 7.2532957,8.0307481 7.3504962,7.9546267 7.5298967,7.7941835 7.6460939,7.7048505 7.7735882,7.6145296 7.8956553,7.593335 8.0432831,7.5883989 c 0.1715822,-0.01218 0.2884049,0.03197 0.4538485,0.070986 0.1750694,0.048487 0.3183274,0.1025749 0.497312,0.1610468 0.2451339,0.073106 0.4379083,0.1463442 0.6747753,0.2143824 0.1601537,0.04266 0.4815461,0.092494 0.6486441,0.081121 0.140467,-0.021262 0.259306,-0.055336 0.386947,-0.1109109 l 0.290024,-0.2025831 v 0 c -0.118634,0.067987 -0.281792,0.1197897 -0.417319,0.152092 -0.161932,0.025213 -0.333753,0.060894 -0.49177,0.024403 C 9.8488929,7.9168092 9.6128136,7.8641206 9.3908755,7.767393 9.2271691,7.6905979 8.9363612,7.6101226 8.7706236,7.5385903 8.5981627,7.4781634 8.4623234,7.4280064 8.2660222,7.4061765 8.1164822,7.407649 8.025378,7.4049675 7.8815767,7.4466997 7.7287858,7.4996615 7.7172458,7.5137367 7.5840062,7.6098867 7.4461468,7.7074641 7.3160433,7.8188031 7.1709899,7.8937662 7.0706816,7.9659327 6.9537974,8.0247544 6.8212524,8.0541427 6.7079362,8.0730044 6.5635197,8.0788313 6.4476767,8.0779712 6.2219951,8.0516004 6.0147123,8.0070532 5.8199586,7.9366628 5.7294262,7.9039415 5.5493316,7.8237997 5.452952,7.7845742 5.3473727,7.7416045 5.1643617,7.6618128 5.0674594,7.6051841 4.9674528,7.5450828 5.2023805,7.6457505 5.3076033,7.6689616 5.5184919,7.748392 5.6148497,7.7779069 5.9288328,7.8851741 6.2356835,7.9909213 6.5641287,8.0002292 6.7825691,7.9541141 7.0081249,7.8804875 7.333047,7.6730717 7.5650027,7.4215603 7.6828378,7.2937911 7.8098272,7.2605717 8.0198463,7.2665577 8.7002913,7.3525939 8.1384225,7.1643987 7.8854184,7.1739696 7.5842163,7.1788662 7.3407375,7.3988068 6.9677241,7.6273331 6.2663167,8.0353683 5.4378726,7.3103984 4.5127702,7.0637614 4.3005932,6.9967592 3.6140114,6.839569 3.1894282,6.8297476 2.7981005,6.792621 2.2060779,6.830112 1.7535497,6.9860014 1.5275144,7.0416808 0.72139354,7.4509421 0.61781051,7.5415651 L 0.47749965,7.7064044 Z" />
  </g>
  <g
     style="display:inline"
     inkscape:label="Layer 2"
     id="layer2"
     inkscape:groupmode="layer">
    <path
       sodipodi:nodetypes="cccccccsscccccscscccccscccsscc"
       style="fill:#474655;fill-opacity:1;stroke-width:0.259318;stroke-linecap:round;stroke-linejoin:round"
       id="path1562"
       d="m 6.4042774,3.6962732 c 0.2524196,-0.063176 0.424409,-0.030483 0.6260467,-0.026411 0.2397303,0.030997 0.3417871,0.082385 0.5759444,0.1678026 0.2020459,0.1005835 0.289418,0.1998521 0.4029358,0.3133108 0.074703,0.090773 0.1607261,0.2076366 0.2082802,0.3104634 0.04575,0.1048169 0.084848,0.1946951 0.093237,0.2729688 0.01198,0.2097775 -0.00715,0.3324832 -0.06549,0.456819 C 8.1462097,5.3497578 8.0262397,5.44984 7.9352258,5.4504024 7.8159361,5.4511396 7.6952044,5.2936057 7.6544587,5.1928904 c -0.033139,-0.081911 0.00457,-0.1464589 0.080689,-0.2210507 0.040095,-0.080168 0.2861745,-0.053792 0.5285817,0.00573 -0.017418,-0.046738 -0.1461419,-0.067047 -0.2665223,-0.08424 0.057057,-0.014339 -0.00267,-0.026103 0.1514277,0.00441 l -0.092615,-0.04058 c 0,0 -0.1558924,-0.040156 -0.2892187,-0.020756 -0.1744375,0.025382 -0.2517641,0.056183 -0.3209594,0.1739219 -0.035936,0.064915 -0.059184,0.1872524 -0.021209,0.2786272 0.054421,0.1309458 0.1225704,0.2286497 0.2135898,0.3083746 0.1338547,0.1262546 0.1980662,0.1125695 0.2642247,0.1231405 0.090837,0.00649 0.1538347,0.00226 0.2169714,-0.032673 C 8.1817547,5.6652643 8.3018908,5.6344323 8.3754426,5.553559 8.5281006,5.4577506 8.5780854,5.3244316 8.6529008,5.1902988 8.7099949,5.0497581 8.6992003,4.7893048 8.6768717,4.5920825 8.6666696,4.5019697 8.5709756,4.3129317 8.5167218,4.2423426 8.365518,4.0745458 8.298415,3.9913077 8.0847575,3.8521096 7.8791242,3.7324396 7.8284697,3.672005 7.5601478,3.5753395 7.4066929,3.5137919 7.2506164,3.4917582 6.9994867,3.4546538 6.811109,3.4268212 6.4332463,3.4955887 6.2350831,3.5736251 5.9251494,3.6956769 5.9346009,3.6996922 5.5147492,3.8274128 5.7302464,3.8281192 5.9247978,3.7951925 6.4042774,3.6962732 Z" />
    <path
       sodipodi:nodetypes="csccscc"
       id="path1668"
       d="m 8.438398,5.2100471 c 0,0 0.1405991,-0.00775 0.1891282,0.04239 0.048913,0.050542 0.071739,0.1206506 0.068477,0.1728241 -0.00325,0.052173 -0.053804,0.1744542 -0.053804,0.1744542 0,0 -0.016302,-0.061955 0.00653,-0.1353243 0.019968,-0.064189 0.00164,-0.1418463 -0.057064,-0.1907587 C 8.5329682,5.2247204 8.4384024,5.2100464 8.438403,5.2100474 Z"
       style="fill:#220819;fill-opacity:1;stroke:none;stroke-width:0.295136px;stroke-linecap:butt;stroke-linejoin:miter;stroke-opacity:1" />
    <path
       sodipodi:nodetypes="ccccccccccccccccscccccccccccccccc"
       d="M 2.068209,8.3959237 C 2.071749,8.5228792 2.048649,8.154623 2.077689,7.7334785 1.997835,7.8408064 1.9173877,8.02539 1.8341681,8.2814188 c -0.05424,0.199239 -0.077376,0.7661091 0.034092,0.9990942 0.1048539,0.2102686 0.3427482,0.526863 0.5310939,0.634654 0.2562032,0.151592 0.5684706,0.283215 0.8510382,0.374742 0.2550841,0.08115 0.5512775,0.146595 0.8161196,0.165725 0.2938384,0.02025 0.6529769,0.03335 0.9473963,0.03494 0.3402167,0.0032 0.6883604,0.0097 1.0712716,0.03851 0.5521926,0.04169 1.0221202,0.07509 1.5410871,0.215903 0.6530853,0.17978 1.2034301,0.340713 1.8329624,0.590458 0.3468406,0.130108 0.7993408,0.288606 1.1047328,0.49487 0.235999,0.172339 0.508347,0.309414 0.734758,0.494306 0.148897,0.125693 0.290037,0.214112 0.39473,0.377686 0.04124,0.06842 0.492161,0.401954 0.5375,0.467715 l -0.130063,-0.285854 v 0 c -0.04625,-0.06452 -0.09364,-0.128373 -0.135525,-0.195834 -0.1109,-0.166916 -0.236946,-0.323929 -0.391966,-0.452377 C 11.343221,12.05234 11.105783,11.877647 10.867897,11.704226 10.556305,11.494591 10.236656,11.293778 9.8777239,11.174018 9.2401748,10.939514 8.5984133,10.713489 7.9448038,10.527629 7.4310802,10.3843 6.9112063,10.26061 6.3832605,10.181898 6.0459815,10.131177 5.7066631,10.104361 5.365469,10.099061 5.0727808,10.095839 4.7799042,10.092825 4.4877173,10.073763 4.2255042,10.055366 3.9045956,9.9989281 3.6499743,9.9280052 3.3688735,9.8432377 3.1524394,9.778001 2.9008798,9.625156 2.719779,9.5215746 2.5444817,9.4079446 2.4119409,9.2433726 2.3243801,9.1081828 2.2661078,8.9591606 2.2399623,8.7995958 2.2225107,8.6562181 2.2274749,8.5123289 2.227472,8.3681119 2.2272646,8.240108 2.3051712,7.7337871 2.308688,7.605827 L 2.0943006,8.1024498 Z"
       id="path1710"
       style="fill:#4b4b5a;fill-opacity:1;stroke:none;stroke-width:0.295601;stroke-linecap:round;stroke-linejoin:round" />
  </g>
  <g
     style="display:inline"
     inkscape:label="Layer 4"
     id="layer4"
     inkscape:groupmode="layer">
    <path
       sodipodi:nodetypes="ccscssscscscsccssccscscsscssccc"
       d="M 10.68331,6.105603 C 10.489799,5.8493101 10.201989,5.7427125 9.9002078,5.7539392 9.6143376,5.7741609 9.3756104,5.8538093 9.1140966,5.96283 8.8569961,6.070011 8.4413906,6.3778605 8.3089458,6.4562646 8.265884,6.4946371 8.1281724,6.5878047 8.0860187,6.626954 7.9853131,6.720488 7.8254027,6.874497 7.7145335,6.9502139 c -0.052471,0.035829 -0.209021,0.1385576 -0.1698348,0.091271 0.1244237,-0.1501272 0,0 -0.2466886,0.074926 C 6.8896046,7.1958515 6.6637626,7.1228554 6.1199297,7.0860598 5.7911229,7.0638147 5.5019379,7.017008 5.1811835,6.9731842 4.7083658,6.9091087 4.4109818,6.7906881 3.9275282,6.8705679 3.8304124,6.8866132 3.427333,6.9992823 3.3319431,7.0224239 2.9501294,7.1365254 2.7756969,7.1880336 2.4032167,7.462859 2.2974185,7.5409197 1.1799983,8.2538303 1.077993,8.3357642 L 1.8074154,7.9289874 2.0563344,7.7800869 c 0.1136273,-0.067966 0.3518732,-0.2544434 0.4654853,-0.3217995 0,0 0.2718933,-0.1658099 0.2290611,-0.1522758 L 3.0343732,7.1926937 C 3.1260412,7.1684327 3.3181805,7.0874553 3.4117051,7.07004 3.9073059,6.9777645 4.052949,6.9028066 4.540079,6.9590011 c 0.317714,0.040281 0.8492165,0.188812 1.1731978,0.2098904 0.550364,0.035794 1.0921268,0.133595 1.6330655,0.018068 0.011694,-0.00554 0.158872,-0.03685 0.3642407,-0.188368 0.042792,-0.031562 0.5480263,-0.4199347 0.585666,-0.4562784 0.1140384,-0.1101105 0.1391024,-0.098 0.2689617,-0.1946637 -0.1107545,0.055391 0.134426,-0.091006 0.2029655,-0.1294687 0.05993,-0.033633 0.3687403,-0.2074241 0.4319733,-0.2358305 0.2536037,-0.1139266 0.4705256,-0.1617431 0.8011055,-0.1801831 0.277179,0.011735 0.514691,0.094259 0.757489,0.5008904 z"
       id="path1570"
       style="display:inline;fill:#e5322d;fill-opacity:1;stroke-width:0.309766;stroke-linecap:round;stroke-linejoin:round" />
  </g>
  <g
     style="display:inline"
     inkscape:label="Layer 5"
     id="layer5"
     inkscape:groupmode="layer">
    <path
       style="display:inline;fill:#231919;fill-opacity:1;stroke:none;stroke-width:0.295136px;stroke-linecap:butt;stroke-linejoin:miter;stroke-opacity:1"
       d="M 5.9267995,2.2782536 C 5.8975629,2.0294648 5.9532921,1.6854059 5.4340797,1.0400675 4.93511,0.41988697 4.6260023,0.32310148 4.4692107,0.25854031 4.3124203,0.19397916 3.9484768,0.07838 3.7382584,0.07193799 c -0.2159497,-0.0066181 -0.373756,0.0759325 -0.3661236,0.2625284 0.00754,0.18446042 0.097588,0.30822646 0.2847947,0.31311927 0.2028485,0.005301 0.3391102,-0.13564391 0.2956964,-0.27622719 0.073976,-0.003628 0.163505,-0.0118283 0.3664114,0.0619557 0.2029066,0.0737841 0.6341512,0.33565715 0.887185,0.70496213 0.1108338,0.1617578 0.4335805,0.4842403 0.4861183,1.0664509 0.046616,0.5165272 0.1767742,0.6943934 0.2891753,0.8655736 C 6.1233132,3.2862506 6.37628,3.4288583 6.535202,3.3414762 6.6539826,3.276165 6.4573417,3.1967678 6.3180041,3.066239 6.1534801,2.9121154 5.9740344,2.6801663 5.9267995,2.2782536 Z"
       id="path1674"
       sodipodi:nodetypes="sssssscsssssss" />
    <path
       sodipodi:nodetypes="sssssscsssssss"
       id="path1674-2"
       d="M 4.6313342,2.5326683 C 4.5002422,2.3015766 4.444291,1.9554844 3.526367,1.4782595 2.6442275,1.0196383 2.2051669,1.0118037 1.9766773,0.99296118 1.7481875,0.97411858 1.23451,0.99236948 0.95422017,1.0150652 0.75328708,1.0313352 0.5960065,1.0787946 0.60741696,1.2899454 0.61689597,1.4654757 0.73940906,1.4776893 0.91579245,1.4709312 1.0898691,1.4642585 1.2517507,1.3623585 1.3455311,1.2437991 1.4405987,1.2199238 1.5542205,1.1873605 1.846263,1.2023585 2.1383053,1.2173555 2.7982583,1.350217 3.2660845,1.6354699 3.4709997,1.7604117 4.0121896,1.9814408 4.2982627,2.526616 4.5520695,3.0102848 4.7881916,3.1453844 4.9986721,3.2789513 5.2641981,3.447451 5.6472107,3.5148071 5.8216902,3.3870053 5.9520986,3.2914831 5.6661247,3.2693632 5.4357295,3.1822979 5.163688,3.0794933 4.8431109,2.9059916 4.6313342,2.5326683 Z"
       style="display:inline;fill:#231919;fill-opacity:1;stroke:none;stroke-width:0.343668px;stroke-linecap:butt;stroke-linejoin:miter;stroke-opacity:1" />
    <path
       sodipodi:nodetypes="cssssscscsssssssscssscssssssscscsccsssc"
       id="path1714"
       d="m 4.5485006,3.6993906 c 0,0 -0.1152879,-0.1660146 -0.3458634,-0.2766909 C 3.9720615,3.3120234 3.7368745,3.2290162 3.4970759,3.2290162 c -0.2397986,0 -0.4427051,0.1291224 -0.5994966,0.1106766 C 2.7407881,3.3212468 2.4456513,3.201347 2.3718671,3.1183402 c -0.073785,-0.083007 0.069173,0.1936837 0.1521798,0.2674678 0.083007,0.073784 0.2766908,0.2213525 0.4334823,0.2305755 0.1567913,0.00923 0.4418218,0.01827 0.5349351,0.036892 0.1614029,0.032281 0.2444102,0.1106766 0.2444102,0.1106766 0,0 -0.1844605,0.013834 -0.4242591,0.041504 C 3.0728168,3.8331243 2.8330182,3.966858 2.6301117,4.0129732 2.4272052,4.0590882 2.0444498,3.9945272 1.9245505,3.9207431 1.8046512,3.8469588 1.5694642,3.6348293 1.541795,3.5518221 c -0.027669,-0.083007 6e-7,0.2167411 0.064563,0.3458634 0.064561,0.1291223 0.2121295,0.3366402 0.3320288,0.3919784 0.1198993,0.055338 0.2674676,0.1521799 0.4427051,0.170626 0.1752373,0.018446 0.4703741,0.018446 0.5626044,-0.02767 0.09223,-0.046115 0.2720792,0.023057 0.2720792,0.023057 0,0 -0.1637526,0.1788968 -0.3550865,0.2859137 C 2.5886097,4.8937706 2.13207,4.8061526 1.8922715,4.8707134 1.6524729,4.935275 1.4634009,5.1151237 1.329667,5.2304113 1.2047046,5.3381374 1.0299188,5.5716632 1.0299188,5.5716632 c 0,0 0.300283,-0.2103721 0.4288706,-0.2444102 C 1.615581,5.2857491 1.8092643,5.1658503 2.0490629,5.2488578 2.2888615,5.3318647 2.38877,5.4523217 2.5886097,5.4886564 2.7915142,5.5255481 2.9483055,5.5347709 3.0128667,5.4702093 3.0774284,5.4056476 2.8929674,5.7100079 2.6623919,5.765346 2.4318168,5.8206858 2.1920182,5.9175275 2.0260038,6.0005347 1.8599894,6.083542 1.7539247,6.3832901 1.7539247,6.3832901 1.705301,6.4944285 1.6340258,6.742988 1.6340258,6.742988 c 0,0 0.3173823,-0.3693373 0.451928,-0.4519281 0.1654368,-0.1015532 0.368921,-0.1752394 0.6179425,-0.1475685 0.2582446,0.018446 0.4002708,0.171641 0.5441585,0.3320288 0.1294846,0.1443332 0.4150359,0.1752374 0.5902733,0.1660144 0.1752375,-0.00923 0.2951367,-0.027669 0.2951367,-0.027669 0,0 -0.3986778,-0.085815 -0.6653685,-0.3710232 C 3.2152671,5.9724575 3.0728168,5.3041964 3.3218385,4.7508151 3.57086,4.1974337 3.8383277,4.0406423 4.0596803,3.9391891 4.2810328,3.8377357 4.5485006,3.6993906 4.5485006,3.6993906 Z"
       style="fill:#c8af64;fill-opacity:1;stroke:none;stroke-width:0.295136px;stroke-linecap:butt;stroke-linejoin:miter;stroke-opacity:1" />
  </g>
</svg>
