<?xml version="1.0" encoding="UTF-8" standalone="no"?>
<svg
   xmlns:dc="http://purl.org/dc/elements/1.1/"
   xmlns:cc="http://creativecommons.org/ns#"
   xmlns:rdf="http://www.w3.org/1999/02/22-rdf-syntax-ns#"
   xmlns:svg="http://www.w3.org/2000/svg"
   xmlns="http://www.w3.org/2000/svg"
   xmlns:sodipodi="http://sodipodi.sourceforge.net/DTD/sodipodi-0.dtd"
   xmlns:inkscape="http://www.inkscape.org/namespaces/inkscape"
   sodipodi:docname="dragon.svg"
   inkscape:version="1.0 (4035a4fb49, 2020-05-01)"
   id="svg8"
   version="1.1"
   viewBox="0 0 13.229166 13.229167"
   height="50"
   width="50">
  <defs
     id="defs2">
    <pattern
       y="0"
       x="0"
       height="6"
       width="6"
       patternUnits="userSpaceOnUse"
       id="EMFhbasepattern" />
  </defs>
  <sodipodi:namedview
     inkscape:window-maximized="0"
     inkscape:window-y="181"
     inkscape:window-x="377"
     inkscape:window-height="1103"
     inkscape:window-width="2040"
     units="px"
     showgrid="false"
     inkscape:document-rotation="0"
     inkscape:current-layer="layer5"
     inkscape:document-units="mm"
     inkscape:cy="23.26309"
     inkscape:cx="32.834221"
     inkscape:zoom="11.313709"
     inkscape:pageshadow="2"
     inkscape:pageopacity="0.0"
     borderopacity="1.0"
     bordercolor="#666666"
     pagecolor="#ffffff"
     id="base" />
  <metadata
     id="metadata5">
    <rdf:RDF>
      <cc:Work
         rdf:about="">
        <dc:format>image/svg+xml</dc:format>
        <dc:type
           rdf:resource="http://purl.org/dc/dcmitype/StillImage" />
        <dc:title />
      </cc:Work>
    </rdf:RDF>
  </metadata>
  <g
     id="layer1"
     inkscape:groupmode="layer"
     inkscape:label="Layer 1"
     style="display:inline">
    <path
       d="m 11.001337,7.1174902 c 0.262401,-0.1411678 0.558516,-0.2653731 0.776961,-0.4700625 0.06124,-0.057382 0.07778,-0.08432 0.129544,-0.1507921 0.123807,-0.1625194 0.177942,-0.3566649 0.233323,-0.5458197 0.05726,-0.208592 0.02886,-0.3555867 -0.04713,-0.5549749 C 12.01515,5.2084777 11.91744,5.1156063 11.742549,5.0027584 11.555151,4.8945236 11.343115,4.8439238 11.12704,4.8134607 10.917189,4.7796261 10.729547,4.7922733 10.522669,4.8332291 10.138641,4.920445 9.7842082,5.0856449 9.470243,5.3117642 9.3655287,5.4021624 9.2990991,5.5211115 9.1914461,5.6087393 c 0,0 0.549538,-0.2093761 0.549538,-0.2093761 v 0 c 0.094333,-0.094765 0.165493,-0.2090583 0.2776659,-0.288101 0.1818,-0.1149242 0.204566,-0.1268158 -0.3645932,0.1833249 -0.027834,0.015168 0.057934,-0.026586 0.087743,-0.038117 0.1025542,-0.039665 0.209771,-0.068939 0.3165322,-0.096987 0.205884,-0.047029 0.379717,-0.064204 0.591139,-0.035298 0.209453,0.024677 0.415345,0.067273 0.598441,0.1692584 0.164834,0.106198 0.257238,0.1863574 0.334818,0.3629999 0.07377,0.1960473 0.08536,0.3256619 0.02772,0.5277753 -0.05375,0.1848696 -0.109294,0.371296 -0.239112,0.525227 -0.06145,0.070273 -0.06714,0.081969 -0.136412,0.142041 -0.170856,0.1481645 -0.643965,0.3990325 0.231465,-0.081018 0,0 -0.465062,0.3470217 -0.465062,0.3470217 z"
       id="path1558"
       style="fill:#474655;fill-opacity:1;stroke-width:0.307799;stroke-linecap:round;stroke-linejoin:round" />
    <path
       d="m 9.3102183,5.555468 c -0.061186,-0.048 -0.097163,-0.1299551 -0.1897265,-0.1405054 -0.073628,-0.00849 -0.1285112,-0.00888 -0.2001883,0.00429 -0.239351,0.079277 -0.3015433,0.18232 -0.3959809,0.302128 l 0.099711,-0.042425 0.088506,-0.0988 c 0,0 0.064361,-0.045335 0.1150467,-0.074461 0.063788,-0.024121 0.1115244,-0.039093 0.1856244,-0.033489 0.090075,0.00817 0.1661296,0.089057 0.1766055,0.1740383 l 0.033991,0.013569 z"
       id="path1560"
       style="fill:#191e23;fill-opacity:1;stroke-width:0.163561;stroke-linecap:round;stroke-linejoin:round"
       sodipodi:nodetypes="cccccsccccc" />
    <path
       sodipodi:nodetypes="cccscscscscsccsscsccccc"
       d="M 11.864883,5.7593144 C 12.090843,5.6074412 12.379395,5.4569165 12.580446,5.2017299 12.670476,5.1077249 12.761957,4.9244055 12.78436,4.8222301 12.83093,4.5182069 12.73819,4.4409638 12.55076,4.1913387 12.51051,4.1377347 12.288715,4.0435784 12.174557,3.9777154 11.889509,3.8186474 11.614879,3.8741912 11.601385,3.5775042 c -0.0082,-0.1800707 0.404528,-0.3651206 0.673287,-0.5124979 0.354409,-0.2342758 0.292932,-0.5129217 0.10935,-0.6371769 0,0 -0.327483,-0.22619 -0.63717,-0.1823835 0.276424,0.078928 0.48811,0.1997188 0.48811,0.1997188 0.130805,0.1238747 0.25946,0.2778778 0.01394,0.4887863 -0.21033,0.1487157 -0.446941,0.2209864 -0.57975,0.3249131 -0.09418,0.0737 -0.260955,0.1901556 -0.26791,0.3834406 0.0044,0.083644 0.01553,0.2050137 0.09135,0.2432049 0.08183,0.052826 0.404525,0.1684901 0.601651,0.2226128 0.207095,0.05686 0.373698,0.1717832 0.440672,0.275288 0.17066,0.263744 0.192968,0.3885237 0.0072,0.73062 -0.03517,0.1241577 -0.294881,0.2686743 -0.399775,0.3786503 -0.02455,0.025746 -0.05364,0.049281 -0.0828,0.072481 -0.02412,0.019211 -0.104107,0.071241 -0.07675,0.054533 0.12543,-0.076636 0.233733,-0.1538786 0.357481,-0.2320313 l -0.475389,0.3716537 z"
       id="path1568"
       style="fill:#e5322d;fill-opacity:1;stroke-width:0.250288;stroke-linecap:round;stroke-linejoin:round" />
    <path
       style="fill:#080000;fill-opacity:1;stroke-width:0.295601;stroke-linecap:round;stroke-linejoin:round"
       id="path1624"
       d="m 11.227564,6.603348 c -0.04402,0.00306 -0.155619,0.078182 -0.198689,0.069559 -0.0306,-0.00802 -0.07032,-0.02823 -0.09276,-0.059335 -0.02019,-0.023496 -0.02867,-0.046334 -0.03446,-0.073538 -0.0055,-0.032541 -0.01171,-0.062226 0.01703,-0.097445 0.01141,-0.022528 0.03069,-0.03305 0.05316,-0.046158 0.02787,-0.01765 0.03478,-0.01273 0.05845,-0.014845 0.02433,-0.00217 0.03825,0.00276 0.06302,0.00976 0.02374,0.0067 0.04376,0.016426 0.05896,0.031941 0.01899,0.01937 0.04012,0.047966 0.05562,0.081405 0.01376,0.029693 0.02277,0.06936 0.0032,0.11314 -0.01093,0.024561 -0.02061,0.041566 -0.06732,0.086736 -0.0315,0.024971 -0.04138,0.050037 -0.06327,0.065907 -0.128166,0.079929 -0.01291,0.010909 0.0063,-0.022205 -0.127782,0.052438 -0.06473,0.029602 -0.188848,0.069379 l -0.09622,0.07456 v 0 c 0.126456,-0.040233 0.06237,-0.01738 0.191974,-0.069267 0.06787,-0.03727 0.149225,-0.066427 0.199447,-0.1054551 0.05155,-0.040065 0.09872,-0.060465 0.132802,-0.097353 0.03438,-0.037216 0.05161,-0.062891 0.05262,-0.081432 0.0018,-0.031988 0.0077,-0.093996 -0.01574,-0.1303051 -0.02501,-0.03862 -0.04606,-0.083785 -0.08113,-0.1034065 -0.01904,-0.010652 -0.06498,-0.033026 -0.09898,-0.044574 -0.0457,-0.00523 -0.06371,-0.0031 -0.111548,-0.00388 -0.04243,0.012572 -0.06466,0.038513 -0.09929,0.06979 -0.02948,0.026616 -0.04733,0.060508 -0.06938,0.093996 -0.0044,0.00983 -0.0097,0.019264 -0.01299,0.029485 -0.01452,0.045037 -0.01492,0.064068 -0.0079,0.1092265 0.0026,0.00728 0.01317,0.035572 0.02625,0.056416 0.01333,0.021226 0.05755,0.057164 0.09258,0.066782 0.04299,0.00864 0.07225,0.00318 0.116314,0.0014 l 0.04711,-0.023815 z"
       sodipodi:nodetypes="ccccccssssscccccscsssccccscccscccc" />
  </g>
  <g
     inkscape:groupmode="layer"
     id="layer3"
     inkscape:label="Layer 3"
     style="display:inline">
    <path
       d="M 0.38968883,7.9020555 C 0.6956743,7.676513 0.79506525,7.6172514 0.95051748,7.565899 1.1056645,7.5146473 1.5341291,7.4215844 1.198559,7.5505673 1.0250709,7.6361823 0.81257596,7.73198 0.62109694,7.8699367 0.43070073,8.0012825 0.13111496,8.185332 0.28535861,8.1507915 0.4887737,8.1063275 0.9048747,7.9316582 1.1588667,7.8237255 1.4570485,7.7110111 1.7300806,7.6214152 1.9830575,7.5363753 2.1790156,7.5052557 2.4965129,7.428754 2.6973364,7.408399 2.9248081,7.385344 3.1886988,7.385662 3.3734771,7.411239 c 0.1846231,0.053107 0.4260306,0.08128 0.5885585,0.1684746 0.1082626,0.05695 0.214703,0.1164937 0.3210734,0.1761485 0.095163,0.065692 0.1995837,0.1190963 0.2999211,0.1780379 0.09845,0.060243 0.2036474,0.1104814 0.313917,0.1513136 0.094134,0.024942 0.1808056,0.064913 0.2752033,0.089004 0.095007,0.026361 0.320092,0.114839 0.4176117,0.132699 0.1122415,0.020556 0.3641744,0.029096 0.4944005,0.039587 0.1216094,0.00979 0.3274205,-0.00493 0.4452337,-0.00585 0.1413832,-0.00112 0.2486192,-0.035239 0.3779105,-0.076692 C 7.0940831,8.2040739 7.1374625,8.1317938 7.2698322,8.0307481 7.3670327,7.9546267 7.5464332,7.7941835 7.6626304,7.7048505 7.7901247,7.6145296 7.9121918,7.593335 8.0598196,7.5883989 c 0.1715822,-0.01218 0.2884049,0.03197 0.4538485,0.070986 0.1750694,0.048487 0.3183274,0.1025749 0.497312,0.1610468 0.2451339,0.073106 0.4379083,0.1463442 0.6747753,0.2143824 0.1601537,0.04266 0.4815456,0.092494 0.6486436,0.081121 0.140467,-0.021262 0.259306,-0.055336 0.386947,-0.1109109 L 11.01137,7.8024411 v 0 c -0.118634,0.067987 -0.281792,0.1197897 -0.417319,0.152092 -0.161932,0.025213 -0.333753,0.060894 -0.49177,0.024403 C 9.8654294,7.9168092 9.6293501,7.8641206 9.407412,7.767393 9.2437056,7.6905979 8.9528977,7.6101226 8.7871601,7.5385903 8.6146992,7.4781634 8.4788599,7.4280064 8.2825587,7.4061765 8.1330187,7.407649 8.0419145,7.4049675 7.8981132,7.4466997 7.7453223,7.4996615 7.7337823,7.5137367 7.6005427,7.6098867 7.4626833,7.7074641 7.3325798,7.8188031 7.1875264,7.8937662 7.0872181,7.9659327 6.9703339,8.0247544 6.8377889,8.0541427 6.7244727,8.0730044 6.5800562,8.0788313 6.4642132,8.0779712 6.2385316,8.0516004 6.0312488,8.0070532 5.8364951,7.9366628 5.7459627,7.9039415 5.5658681,7.8237997 5.4694885,7.7845742 5.3639092,7.7416045 5.1808982,7.6618128 5.0839959,7.6051841 4.9839893,7.5450828 5.218917,7.6457505 5.3241398,7.6689616 5.5350284,7.748392 5.6313862,7.7779069 5.9453693,7.8851741 6.25222,7.9909213 6.5806652,8.0002292 6.7991056,7.9541141 7.0246614,7.8804875 7.3495835,7.6730717 7.5815392,7.4215603 7.6993743,7.2937911 7.8263637,7.2605717 8.0363828,7.2665577 8.7168278,7.3525939 8.154959,7.1643987 7.9019549,7.1739696 7.6007528,7.1788662 7.357274,7.3988068 6.9842606,7.6273331 6.2828532,8.0353683 5.4544091,7.3103984 4.5293067,7.0637614 4.3171297,6.9967592 3.6305479,6.839569 3.2059647,6.8297476 2.814637,6.792621 2.2226144,6.830112 1.7700862,6.9860014 1.5440509,7.0416808 0.73793,7.4509421 0.63434697,7.5415651 L 0.49403611,7.7064044 Z"
       id="path1626"
       style="fill:#5a5a55;fill-opacity:1;stroke-width:0.313806;stroke-linecap:round;stroke-linejoin:round"
       sodipodi:nodetypes="cscccccsccccccsssscccccccccsccccccccccssccccsccccccccc" />
  </g>
  <g
     inkscape:groupmode="layer"
     id="layer2"
     inkscape:label="Layer 2"
     style="display:inline">
    <path
       d="m 6.4208139,3.6962732 c 0.2524196,-0.063176 0.424409,-0.030483 0.6260467,-0.026411 0.2397303,0.030997 0.3417871,0.082385 0.5759444,0.1678026 0.2020459,0.1005835 0.289418,0.1998521 0.4029358,0.3133108 0.074703,0.090773 0.1607261,0.2076366 0.2082802,0.3104634 0.04575,0.1048169 0.084848,0.1946951 0.093237,0.2729688 0.01198,0.2097775 -0.00715,0.3324832 -0.06549,0.456819 C 8.2095184,5.3263717 8.0837018,5.4147609 7.9926879,5.4153233 7.8733982,5.4160605 7.7877457,5.2994522 7.747,5.1987369 7.713861,5.1168259 7.7106443,5.040585 7.7867633,4.9659932 c 0.040095,-0.080168 0.2510954,-0.047945 0.4935026,0.011577 -0.017418,-0.046738 -0.1461419,-0.067047 -0.2665223,-0.08424 0.057057,-0.014339 -0.00267,-0.026103 0.1514277,0.00441 l -0.092615,-0.04058 c 0,0 -0.1792785,-0.069389 -0.3126048,-0.049989 -0.1744375,0.025382 -0.2517641,0.050337 -0.3209594,0.1680754 -0.035936,0.064915 -0.035798,0.2223315 0.00218,0.3137063 0.054421,0.1309458 0.1225704,0.2286497 0.2135898,0.3083746 0.1338547,0.1262546 0.2214523,0.1418021 0.2876108,0.1523731 0.090837,0.00649 0.1655277,-0.026973 0.2286644,-0.061906 0.062336,-0.022531 0.1824722,-0.070902 0.256024,-0.1517755 C 8.5797162,5.440211 8.5946219,5.3244316 8.6694373,5.1902988 8.7265314,5.0497581 8.7157368,4.7893048 8.6934082,4.5920825 8.6832061,4.5019697 8.5875121,4.3129317 8.5332583,4.2423426 8.3820545,4.0745458 8.3149515,3.9913077 8.101294,3.8521096 7.8956607,3.7324396 7.8450062,3.672005 7.5766843,3.5753395 7.4232294,3.5137919 7.2671529,3.4917582 7.0160232,3.4546538 6.8276455,3.4268212 6.4497828,3.4955887 6.2516196,3.5736251 5.9416859,3.6956769 5.9511374,3.6996922 5.5312857,3.8274128 5.7467829,3.8281192 5.9413343,3.7951925 6.4208139,3.6962732 Z"
       id="path1562"
       style="fill:#474655;fill-opacity:1;stroke-width:0.259318;stroke-linecap:round;stroke-linejoin:round"
       sodipodi:nodetypes="cccccccsscccccscscccccscccsscc" />
    <path
       style="fill:#2d231e;fill-opacity:1;stroke:none;stroke-width:0.295136px;stroke-linecap:butt;stroke-linejoin:miter;stroke-opacity:1"
       d="m 8.4549345,5.2100471 c 0,0 0.1405991,-0.00775 0.1891282,0.04239 0.048913,0.050542 0.071739,0.1206506 0.068477,0.1728241 -0.00325,0.052173 -0.053804,0.1744542 -0.053804,0.1744542 0,0 -0.016302,-0.061955 0.00653,-0.1353243 0.019968,-0.064189 0.00164,-0.1418463 -0.057064,-0.1907587 -0.058697,-0.048912 -0.1532628,-0.063586 -0.1532622,-0.063585 z"
       id="path1668"
       sodipodi:nodetypes="csccscc" />
    <path
       style="fill:#5a5a64;fill-opacity:1;stroke:none;stroke-width:0.295601;stroke-linecap:round;stroke-linejoin:round"
       id="path1710"
       d="m 2.1260866,8.2801685 c 0.00354,0.1269555 -0.01956,-0.2413007 0.00948,-0.6624452 -0.079854,0.1073279 -0.1603013,0.2919115 -0.2435209,0.5479403 -0.05424,0.199239 -0.077376,0.7661091 0.034092,0.9990942 0.1048539,0.2102686 0.3544412,0.5970212 0.5427869,0.7048122 0.2562032,0.151592 0.6152428,0.271522 0.8978104,0.363049 0.2550841,0.08115 0.679901,0.146595 0.9447431,0.165725 0.2938384,0.02025 0.6646699,0.05674 0.9590893,0.05833 0.3402167,0.0032 0.7935978,0.02139 1.176509,0.0502 0.5521926,0.04169 0.8934967,0.08678 1.3773845,0.169131 0.6530853,0.17978 1.0631136,0.247169 1.6926459,0.496914 0.3468406,0.130108 0.7642612,0.335378 1.0696532,0.541642 0.235999,0.172339 0.463874,0.311037 0.689075,0.497402 0.150119,0.12423 0.288272,0.237945 0.322652,0.330498 0.03961,0.106624 0.05518,0.213274 -0.01349,0.407659 0,0 0.118544,-0.04555 0.150777,-0.09634 0.04078,-0.06426 0.08691,-0.190543 0.08056,-0.279421 -0.0067,-0.09398 -0.05597,-0.227886 -0.09786,-0.295347 -0.0729,-0.111379 -0.116676,-0.186627 -0.271696,-0.315075 C 11.216603,11.78032 11.238317,11.743593 11.000431,11.570172 10.688839,11.360537 9.999127,10.919945 9.6401949,10.800185 9.0026458,10.565681 8.8083004,10.515883 8.1546909,10.330023 7.6409673,10.186694 6.9690839,10.144855 6.4411381,10.066143 6.1038591,10.015422 5.7645407,9.9886058 5.4233466,9.9833058 5.1306584,9.9800838 4.8377818,9.9770698 4.5455949,9.9580078 4.2833818,9.9396108 3.9624732,9.8831729 3.7078519,9.81225 3.4267511,9.7274825 3.210317,9.6622458 2.9587574,9.5094008 2.7776566,9.4058194 2.6023593,9.2921894 2.4698185,9.1276174 2.3822577,8.9924276 2.3239854,8.8434054 2.2978399,8.6838406 2.2803883,8.5404629 2.2853525,8.3965737 2.2853496,8.2523567 2.2851422,8.1243528 2.3630488,7.6180319 2.3665656,7.4900718 L 2.1521782,7.9866946 Z"
       sodipodi:nodetypes="ccccccccccccsscsscccccccccccccccc" />
  </g>
  <g
     inkscape:groupmode="layer"
     id="layer4"
     inkscape:label="Layer 4"
     style="display:inline">
    <path
       style="display:inline;fill:#e5322d;fill-opacity:1;stroke-width:0.309766;stroke-linecap:round;stroke-linejoin:round"
       id="path1570"
       d="M 10.699846,6.105603 C 10.506335,5.8493101 10.226793,5.726176 9.9250125,5.7374027 9.6391423,5.7576244 9.3756104,5.8290046 9.1140966,5.9380253 8.8569961,6.0452063 8.4661953,6.3489217 8.3337505,6.4273258 8.2493476,6.4822348 8.1199042,6.5754024 8.0777505,6.6145517 7.9770449,6.7080857 7.8419392,6.874497 7.73107,6.9502139 7.678599,6.9860429 7.522049,7.0887715 7.5612352,7.0414849 c 0.1244237,-0.1501272 0,0 -0.2466886,0.074926 C 6.9061411,7.1958515 6.6802991,7.1228554 6.1364662,7.0860598 5.8076594,7.0638147 5.5184744,6.9922033 5.19772,6.9483795 4.7249023,6.884304 4.4233842,6.7658834 3.9399306,6.8457632 3.8428148,6.8618085 3.4356013,6.9744776 3.3402114,6.9976192 2.9583977,7.1117207 2.7467581,7.1714971 2.3742779,7.4463225 2.2684797,7.5243832 1.1965348,8.2538303 1.0945295,8.3357642 L 1.6131121,8.0654132 1.9901886,7.8379645 C 2.1035633,7.769578 2.3585983,7.5959234 2.4722104,7.5285673 c 0,0 0.3049662,-0.1906145 0.262134,-0.1770804 L 3.0385074,7.2133643 C 3.1301754,7.1891033 3.334717,7.1081259 3.4282416,7.0907106 3.9238424,6.9984346 4.1396437,6.9495788 4.6267737,7.0057736 c 0.317714,0.040281 0.8842957,0.1771189 1.208277,0.1981973 0.550364,0.035794 0.9868894,0.098516 1.5278281,-0.017011 0.011694,-0.00554 0.158872,-0.03685 0.3642407,-0.188368 C 7.7699115,6.9670295 8.093594,6.739115 8.1763597,6.6746048 8.2976942,6.5800327 8.4477538,6.4939225 8.5776131,6.3972588 8.4668586,6.4526498 8.7699167,6.2690457 8.8384562,6.230583 8.8983862,6.19695 9.2237329,6.0107566 9.2869659,5.9823502 9.5405696,5.8684236 9.6748093,5.8454118 10.005389,5.8269718 c 0.277179,0.011735 0.527093,0.069454 0.769891,0.4760857 z"
       sodipodi:nodetypes="ccscssscscscsccssccscscsscssccc" />
  </g>
  <g
     inkscape:groupmode="layer"
     id="layer5"
     inkscape:label="Layer 5"
     style="display:inline">
    <path
       sodipodi:nodetypes="sssssscsssssss"
       id="path1674"
       d="M 5.943336,2.2782536 C 5.9140994,2.0294648 5.9698286,1.6854059 5.4506162,1.0400675 4.9516465,0.41988697 4.6425388,0.32310148 4.4857472,0.25854031 4.3289568,0.19397916 3.9650133,0.07838 3.7547949,0.07193799 c -0.2159497,-0.0066181 -0.373756,0.0759325 -0.3661236,0.2625284 0.00754,0.18446042 0.097588,0.30822646 0.2847947,0.31311927 0.2028485,0.005301 0.3391102,-0.13564391 0.2956964,-0.27622719 0.073976,-0.003628 0.163505,-0.0118283 0.3664114,0.0619557 0.2029066,0.0737841 0.6341512,0.33565715 0.887185,0.70496213 0.1108338,0.1617578 0.4335805,0.4842403 0.4861183,1.0664509 0.046616,0.5165272 0.1767742,0.6943934 0.2891753,0.8655736 C 6.1398497,3.2862506 6.3928165,3.4288583 6.5517385,3.3414762 6.6705191,3.276165 6.4738782,3.1967678 6.3345406,3.066239 6.1700166,2.9121154 5.9905709,2.6801663 5.943336,2.2782536 Z"
       style="display:inline;fill:#231919;fill-opacity:1;stroke:none;stroke-width:0.295136px;stroke-linecap:butt;stroke-linejoin:miter;stroke-opacity:1" />
    <path
       style="display:inline;fill:#231919;fill-opacity:1;stroke:none;stroke-width:0.343668px;stroke-linecap:butt;stroke-linejoin:miter;stroke-opacity:1"
       d="M 4.6478707,2.5326683 C 4.5167787,2.3015766 4.4608275,1.9554844 3.5429035,1.4782595 2.660764,1.0196383 2.2217034,1.0118037 1.9932138,0.99296118 1.764724,0.97411858 1.2510465,0.99236948 0.97075663,1.0150652 0.76982354,1.0313352 0.61254296,1.0787946 0.62395342,1.2899454 0.63343243,1.4654757 0.75594552,1.4776893 0.93232891,1.4709312 1.1064056,1.4642585 1.2682872,1.3623585 1.3620676,1.2437991 1.4571352,1.2199238 1.570757,1.1873605 1.8627995,1.2023585 2.1548418,1.2173555 2.8147948,1.350217 3.282621,1.6354699 3.4875362,1.7604117 4.0287261,1.9814408 4.3147992,2.526616 4.568606,3.0102848 4.8047281,3.1453844 5.0152086,3.2789513 5.2807346,3.447451 5.6637472,3.5148071 5.8382267,3.3870053 5.9686351,3.2914831 5.6826612,3.2693632 5.452266,3.1822979 5.1802245,3.0794933 4.8596474,2.9059916 4.6478707,2.5326683 Z"
       id="path1674-2"
       sodipodi:nodetypes="sssssscsssssss" />
    <path
       style="fill:#c8af64;fill-opacity:1;stroke:none;stroke-width:0.303181px;stroke-linecap:butt;stroke-linejoin:miter;stroke-opacity:1"
       d="m 5.1031011,3.7658983 c 0,0 -0.1184303,-0.1705398 -0.3552908,-0.2842329 C 4.5109496,3.3679723 4.269352,3.2827026 4.023017,3.2827026 c -0.246335,0 -0.4547722,0.1326419 -0.6158375,0.1136933 C 3.2461145,3.3774469 2.942933,3.2542792 2.8671376,3.1690098 c -0.075796,-0.08527 0.071059,0.1989631 0.1563278,0.2747583 0.08527,0.075795 0.2842328,0.2273861 0.4452981,0.2368605 0.1610651,0.00948 0.4538648,0.018768 0.5495162,0.037898 C 4.1840821,3.7516876 4.269352,3.83222 4.269352,3.83222 c 0,0 -0.1894885,0.014211 -0.4358235,0.042635 C 3.5871936,3.9032773 3.3408586,4.0406562 3.1324213,4.0880284 2.9239841,4.1354004 2.5307956,4.0690796 2.4076281,3.9932844 2.2844606,3.9174889 2.042863,3.6995772 2.0144396,3.6143074 c -0.028423,-0.08527 6e-7,0.222649 0.066323,0.3552909 0.066321,0.1326418 0.2179117,0.3458162 0.3410792,0.4026628 0.1231675,0.056846 0.2747581,0.156328 0.4547722,0.1752769 0.1800139,0.018949 0.4831954,0.018949 0.5779397,-0.028424 0.094744,-0.047372 0.2794955,0.023685 0.2794955,0.023685 0,0 -0.1682161,0.1837732 -0.3647654,0.2937071 C 3.0897881,4.9928344 2.6208041,4.9028281 2.3744693,4.9691487 2.1281343,5.0354701 1.9339086,5.2202211 1.7965295,5.3386511 1.6681609,5.4493136 1.4886108,5.6892048 1.4886108,5.6892048 c 0,0 0.308468,-0.2161064 0.4405606,-0.2510723 0.1610654,-0.042635 0.3600281,-0.1658021 0.6063631,-0.080532 0.2463349,0.085269 0.3489667,0.2090098 0.5542536,0.2463349 0.2084352,0.037897 0.3695003,0.047371 0.4358213,-0.01895 0.066321,-0.066322 -0.1231675,0.246335 -0.360028,0.3031814 -0.23686,0.056848 -0.483195,0.1563297 -0.6537346,0.2415995 -0.1705396,0.08527 -0.2794953,0.3931884 -0.2794953,0.3931884 -0.049949,0.1141678 -0.1231671,0.3695024 -0.1231671,0.3695024 0,0 0.3260334,-0.3794046 0.4642465,-0.4642466 0.1699462,-0.1043213 0.378977,-0.180016 0.6347862,-0.1515909 0.2652838,0.018949 0.4111813,0.1763196 0.558991,0.3410792 0.1330141,0.1482674 0.4263489,0.180014 0.6063629,0.1705396 0.180014,-0.00948 0.3031814,-0.028423 0.3031814,-0.028423 0,0 -0.4095448,-0.088154 -0.6835049,-0.3811365 C 3.7335267,6.1009238 3.5871936,5.4144475 3.843003,4.8459822 4.0988123,4.2775169 4.3735705,4.1164517 4.6009567,4.0122332 4.8283428,3.9080144 5.1031011,3.7658983 5.1031011,3.7658983 Z"
       id="path1714"
       sodipodi:nodetypes="cssssscscsssssssscssscssssssscscsccsssc" />
  </g>
</svg>
