<?xml version="1.0" encoding="UTF-8" standalone="no"?>
<svg
   xmlns:dc="http://purl.org/dc/elements/1.1/"
   xmlns:cc="http://creativecommons.org/ns#"
   xmlns:rdf="http://www.w3.org/1999/02/22-rdf-syntax-ns#"
   xmlns:svg="http://www.w3.org/2000/svg"
   xmlns="http://www.w3.org/2000/svg"
   xmlns:sodipodi="http://sodipodi.sourceforge.net/DTD/sodipodi-0.dtd"
   xmlns:inkscape="http://www.inkscape.org/namespaces/inkscape"
   sodipodi:docname="dragon.svg"
   inkscape:version="1.0 (4035a4fb49, 2020-05-01)"
   id="svg8"
   version="1.1"
   viewBox="0 0 13.229166 13.229167"
   height="50"
   width="50">
  <defs
     id="defs2" />
  <sodipodi:namedview
     inkscape:window-maximized="0"
     inkscape:window-y="136"
     inkscape:window-x="441"
     inkscape:window-height="1103"
     inkscape:window-width="1841"
     units="px"
     showgrid="false"
     inkscape:document-rotation="0"
     inkscape:current-layer="layer1"
     inkscape:document-units="mm"
     inkscape:cy="16.276138"
     inkscape:cx="25.808578"
     inkscape:zoom="15.839192"
     inkscape:pageshadow="2"
     inkscape:pageopacity="0.0"
     borderopacity="1.0"
     bordercolor="#666666"
     pagecolor="#ffffff"
     id="base" />
  <metadata
     id="metadata5">
    <rdf:RDF>
      <cc:Work
         rdf:about="">
        <dc:format>image/svg+xml</dc:format>
        <dc:type
           rdf:resource="http://purl.org/dc/dcmitype/StillImage" />
        <dc:title />
      </cc:Work>
    </rdf:RDF>
  </metadata>
  <g
     id="layer1"
     inkscape:groupmode="layer"
     inkscape:label="Layer 1">
    <path
       sodipodi:nodetypes="cscssssscsssssscssssssscssssssscsssssscsc"
       id="path847"
       d="m 5.3620949,1.937704 c 0,0 -0.1837478,0.4510173 -0.3006784,0.5679477 C 4.9444863,2.6225822 4.543582,2.7395127 4.4934689,2.9399649 4.4182979,3.1320647 4.378879,3.3632813 4.65216,3.532969 4.9730343,3.7322086 5.7510441,3.9651804 5.9550991,4.0842125 6.1555511,4.2011429 6.6731208,4.4720147 6.8988947,4.5352298 7.1076988,4.5936936 7.5110614,4.6073518 7.6839988,4.4517079 7.8510421,4.3013688 7.8677454,3.7083645 8.1684248,3.6081385 8.4691031,3.5079125 9.1038681,3.4410951 9.1038681,3.4410951 c 0,0 -0.2839738,-0.1336347 -0.5512434,-0.100226 C 8.2853553,3.3742778 7.8510423,3.2740518 7.6839986,3.4076864 7.5169553,3.5413211 7.2830946,3.725069 7.1494596,3.6582516 7.0158249,3.5914343 7.1160509,3.4745038 7.1828683,3.3408691 7.2496859,3.2072341 7.4835466,2.9399648 7.7007031,2.9733734 c 0.2171565,0.033409 0.968852,0.066817 1.1024867,-0.066817 0.1336347,-0.1336347 0.2672697,-0.8769782 0.2672697,-0.8769782 0,0 -0.3507913,0.5094826 -0.5512436,0.5428912 C 8.3187639,2.6058778 7.9011551,2.6559909 7.7174076,2.6726951 7.5336597,2.6893983 7.3165032,2.6893983 7.0993467,2.7729214 6.8821902,2.856443 6.5648077,3.1571213 6.3977641,3.1070081 6.2307207,3.0568953 6.3476512,2.9399648 6.5648077,2.7562169 6.7819642,2.5724692 7.2329813,2.3553127 7.3499118,2.3553127 c 0.1169305,0 0.6097087,-0.3173826 0.5930042,-0.5846522 -0.016704,-0.2672695 0.058465,-0.83521714 0.058465,-0.83521714 0,0 -0.3489895,0.31447424 -0.3841999,0.53453894 C 7.5837727,1.6787867 7.324855,1.9377041 7.024177,1.9209997 6.7234989,1.9042957 6.6483293,2.1465083 6.4311728,2.2467344 6.2140165,2.3469605 6.0636774,2.6225822 5.8966337,2.6726951 5.7295904,2.7228083 5.5458425,2.6225822 5.7128862,2.5056518 5.8799295,2.3887214 6.1151088,2.2194815 6.1889599,1.9794649 6.2557772,1.7623084 6.4645815,1.6286736 6.7151466,1.4950389 6.9657118,1.3614041 6.8237249,0.99390849 6.7485556,0.76839988 6.6149207,0.97720418 6.4645815,1.0273172 6.3977641,1.1943606 6.3309468,1.3614041 6.0135643,1.4699824 5.9133383,1.6370258 5.813112,1.8040693 5.7880555,1.8625345 5.7546468,2.0128736 5.7212382,2.1632127 5.8298164,2.1882692 5.6460686,2.3051996 5.4623207,2.4221301 5.6794772,2.3386083 5.7128862,2.1882692 5.7462948,2.0379301 5.662773,1.887591 5.6794772,1.6370258 5.6961804,1.3864606 5.8131121,1.0356694 5.8131121,1.0356694 c 0,0 -0.3173826,0.1169307 -0.3674955,0.3173825 -0.050113,0.2004522 -0.11693,0.3842 -0.083522,0.5846521 z"
       style="fill:none;stroke:#000000;stroke-width:0.264583px;stroke-linecap:butt;stroke-linejoin:miter;stroke-opacity:1" />
  </g>
</svg>
