<?xml version="1.0" encoding="UTF-8" standalone="no"?>
<svg
   xmlns:dc="http://purl.org/dc/elements/1.1/"
   xmlns:cc="http://creativecommons.org/ns#"
   xmlns:rdf="http://www.w3.org/1999/02/22-rdf-syntax-ns#"
   xmlns:svg="http://www.w3.org/2000/svg"
   xmlns="http://www.w3.org/2000/svg"
   xmlns:sodipodi="http://sodipodi.sourceforge.net/DTD/sodipodi-0.dtd"
   xmlns:inkscape="http://www.inkscape.org/namespaces/inkscape"
   width="50"
   height="50"
   viewBox="0 0 13.229166 13.229167"
   version="1.1"
   id="svg8"
   inkscape:version="1.0 (4035a4fb49, 2020-05-01)"
   sodipodi:docname="rabbit.svg">
  <defs
     id="defs2" />
  <sodipodi:namedview
     id="base"
     pagecolor="#ffffff"
     bordercolor="#666666"
     borderopacity="1.0"
     inkscape:pageopacity="0.0"
     inkscape:pageshadow="2"
     inkscape:zoom="15.839192"
     inkscape:cx="28.659836"
     inkscape:cy="25.605703"
     inkscape:document-units="mm"
     inkscape:current-layer="layer1"
     inkscape:document-rotation="0"
     showgrid="false"
     units="px"
     inkscape:window-width="1841"
     inkscape:window-height="1103"
     inkscape:window-x="287"
     inkscape:window-y="169"
     inkscape:window-maximized="0" />
  <metadata
     id="metadata5">
    <rdf:RDF>
      <cc:Work
         rdf:about="">
        <dc:format>image/svg+xml</dc:format>
        <dc:type
           rdf:resource="http://purl.org/dc/dcmitype/StillImage" />
        <dc:title />
      </cc:Work>
    </rdf:RDF>
  </metadata>
  <g
     inkscape:label="Layer 1"
     inkscape:groupmode="layer"
     id="layer1">
    <path
       style="fill:#e69611;fill-opacity:1;stroke:#000000;stroke-width:0.291807;stroke-linecap:round;stroke-linejoin:round;stroke-miterlimit:4;stroke-dasharray:none;stroke-opacity:1"
       d="m 12.600434,5.8186709 c -0.02309,-0.5707702 -0.01743,-1.597628 -0.77506,-2.0849236 -0.757629,-0.4872954 -1.525708,-0.4679844 -1.525708,-0.4679844 0,0 -0.5548776,-0.987236 -1.3485835,-1.6244691 C 8.1573759,1.0040613 6.4961021,0.55260751 6.0270938,0.70254449 5.5580854,0.85248152 6.0270691,1.3171811 6.2865746,1.5370959 6.647256,1.8427508 7.5160021,1.9203881 8.1692288,2.1719134 c 0.8799054,0.3388082 1.5269223,1.2230052 1.5269223,1.2230052 0,0 -0.1553276,0.022424 -0.4078707,0.2473298 C 9.0357375,3.8671539 8.8235409,3.9783157 8.6277563,3.9910016 8.0231022,4.0301806 8.0005177,3.3910522 7.1780202,2.8364328 6.157973,2.1486035 5.034263,2.1676624 3.951936,2.5425053 2.8696091,2.9173481 2.2981529,3.778794 2.0095324,4.3785425 1.7209119,4.9782909 1.5705604,5.7368311 1.6062403,6.1505734 c 0,0 -0.3944672,-0.170825 -0.65109842,-0.044151 C 0.72410601,6.2204631 0.50890868,6.5461571 0.56659502,6.9137892 0.62470125,7.2841005 0.96850168,7.5082843 1.3469925,7.4907141 1.7684468,7.4711496 1.9543608,7.124918 1.9543608,7.124918 c 0,0 0.2153037,0.2763373 0.587351,0.3526847 0.5355259,0.1098942 0.9256683,-0.061825 1.3371046,0.00169 0.2601459,0.040167 0.8237003,0.087342 1.0876303,0.3038459 C 5.1367418,7.9228404 5.0446756,8.2782368 4.7517082,8.4161275 4.5462181,8.5128452 4.2054317,8.6658664 3.9144671,8.784564 3.5649203,8.9271598 3.543493,9.2716616 3.6162888,9.521397 c 0.078412,0.2690012 0.4311773,0.4189414 0.7691947,0.483538 0.5133924,0.09811 0.8000202,0.192428 1.2700511,0.377272 0.2754161,0.108309 0.7016049,0.518505 0.9370331,0.835138 0.1850014,0.248814 0.4335623,0.833609 1.0715993,1.111618 0.4002315,0.174392 0.8222012,0.193254 1.2120872,0.0079 C 8.9707297,11.962297 8.7825629,11.510115 7.9589063,10.798507 7.5712932,10.463624 7.1114123,10.118344 6.6512222,9.8421934 6.2215587,9.5843598 5.8060712,9.4271606 5.3980895,9.289277 5.7239706,9.0443166 6.522056,8.4573034 6.9273752,8.091725 7.684511,7.4088252 7.750624,6.2604891 6.9655165,5.7210771 7.5000574,6.082846 7.4940865,6.5213459 7.5224729,6.8094598 7.5489154,7.0778408 7.4261388,7.5039287 7.2923541,7.715896 7.1529782,7.9367224 6.2024011,8.7211831 5.8922549,8.9852187 6.3884334,8.9814316 7.0279528,8.7887039 7.3943466,8.5917214 7.6418933,8.4586343 8.0877065,8.1676318 8.3537598,7.8822602 8.5553018,7.666084 8.9404215,7.0923309 9.0529282,6.7419695 9.1453986,6.4540038 9.2891347,5.7101852 9.2891347,5.7101852 c 0,0 0.3851812,0.3330222 0.8808253,0.5652212 0.431946,0.2023578 1.036627,0.2548999 1.38818,0.189167 0.339118,-0.063408 1.10348,-0.3297777 1.042294,-0.6459025 z"
       id="path833"
       sodipodi:nodetypes="cscsssscssssscssscsssssssssscsscscsscssscssc" />
    <ellipse
       style="fill:#e69691;stroke:#000000;stroke-width:0.304178;stroke-linecap:round;stroke-linejoin:round"
       id="path835"
       cx="11.733441"
       cy="5.0130796"
       rx="0.084684767"
       ry="0.2117119" />
  </g>
</svg>
