<?xml version="1.0" encoding="UTF-8" standalone="no"?>
<svg
   xmlns:dc="http://purl.org/dc/elements/1.1/"
   xmlns:cc="http://creativecommons.org/ns#"
   xmlns:rdf="http://www.w3.org/1999/02/22-rdf-syntax-ns#"
   xmlns:svg="http://www.w3.org/2000/svg"
   xmlns="http://www.w3.org/2000/svg"
   xmlns:sodipodi="http://sodipodi.sourceforge.net/DTD/sodipodi-0.dtd"
   xmlns:inkscape="http://www.inkscape.org/namespaces/inkscape"
   width="50"
   height="50"
   viewBox="0 0 13.229166 13.229167"
   version="1.1"
   id="svg8"
   inkscape:version="1.0 (4035a4fb49, 2020-05-01)"
   sodipodi:docname="rabbit.svg">
  <defs
     id="defs2" />
  <sodipodi:namedview
     id="base"
     pagecolor="#ffffff"
     bordercolor="#666666"
     borderopacity="1.0"
     inkscape:pageopacity="0.0"
     inkscape:pageshadow="2"
     inkscape:zoom="11.2"
     inkscape:cx="27.686767"
     inkscape:cy="32.202479"
     inkscape:document-units="mm"
     inkscape:current-layer="layer1"
     inkscape:document-rotation="0"
     showgrid="false"
     units="px"
     inkscape:window-width="1841"
     inkscape:window-height="1103"
     inkscape:window-x="287"
     inkscape:window-y="169"
     inkscape:window-maximized="0" />
  <metadata
     id="metadata5">
    <rdf:RDF>
      <cc:Work
         rdf:about="">
        <dc:format>image/svg+xml</dc:format>
        <dc:type
           rdf:resource="http://purl.org/dc/dcmitype/StillImage" />
        <dc:title />
      </cc:Work>
    </rdf:RDF>
  </metadata>
  <g
     inkscape:label="Layer 1"
     inkscape:groupmode="layer"
     id="layer1">
    <path
       style="fill:none;stroke:#000000;stroke-width:0.239;stroke-linecap:round;stroke-linejoin:round;stroke-miterlimit:4;stroke-dasharray:none;stroke-opacity:1"
       d="M 11.410307,5.7822057 C 11.304325,5.3244001 11.39603,4.473695 10.775507,4.0745836 10.154984,3.6754724 9.5259011,3.6912887 9.5259011,3.6912887 c 0,0 -0.4544628,-0.8085792 -1.1045349,-1.3304944 C 7.771294,1.8388796 6.4106553,1.4691238 6.0265218,1.5919272 c -0.3841336,0.1228035 -2.03e-5,0.503408 0.2125234,0.6835255 0.2954101,0.2503416 1.0069422,0.3139291 1.5419567,0.5199368 0.720672,0.2774952 1.2506,1.0016821 1.2506,1.0016821 0,0 -0.1272181,0.018366 -0.3340594,0.2025714 C 8.4907015,4.1838481 8.3169054,4.2748933 8.1565513,4.2852835 7.6613194,4.3173724 7.6428219,3.7939049 6.9691689,3.339653 6.1337162,2.7762979 5.2133602,2.7919077 4.3268982,3.0989166 3.4404363,3.4059254 2.9723946,4.1114784 2.7360048,4.6026924 2.4996149,5.0939064 2.376472,5.7151762 2.405695,6.0540449 c 0,0 -0.3230818,-0.1399114 -0.5332713,-0.036161 -0.1892261,0.093403 -0.3654799,0.3601573 -0.3182329,0.6612603 0.047591,0.3032973 0.329175,0.4869113 0.6391716,0.4725208 0.3451852,-0.016024 0.497455,-0.2995993 0.497455,-0.2995993 0,0 0.1763409,0.2263295 0.4810601,0.2888606 0.4386136,0.090007 0.7581532,-0.050637 1.0951333,0.00139 0.2130682,0.032898 0.6746381,0.071536 0.8908056,0.24886 C 5.2972938,7.5055908 5.2218884,7.7966724 4.9819383,7.9096095 4.8136351,7.9888245 4.5345197,8.114154 4.2962099,8.2113713 4.0099194,8.328162 3.9923697,8.6103205 4.0519919,8.8148618 c 0.064222,0.2203213 0.3531487,0.3431275 0.6299962,0.3960337 0.4204855,0.080356 0.6552433,0.1576058 1.0402143,0.3089984 0.225575,0.088709 0.5746378,0.4246727 0.7674614,0.6840061 0.1515223,0.203787 0.355102,0.682754 0.8776756,0.910453 0.327803,0.142832 0.6734103,0.158281 0.99274,0.0065 C 8.4374579,10.814041 8.2833431,10.443689 7.6087408,9.8608585 7.2912727,9.5865781 6.9146149,9.3037822 6.5377038,9.0776048 6.185795,8.866431 5.8454969,8.7376794 5.5113462,8.6247481 5.7782537,8.4241173 6.6168725,7.9473025 6.879973,7.5858677 7.4420471,6.813717 7.2640146,5.8925398 6.7177276,5.5474856 7.3103219,5.9792255 7.2570605,6.3480457 7.2803099,6.5840207 7.3019669,6.8038337 7.2110831,7.1528139 7.1015091,7.3264222 6.9873556,7.5072864 6.2184755,8.1981571 5.9644553,8.414411 6.3708421,8.4113093 6.8462587,8.214762 7.1463475,8.0534268 7.3490966,7.9444239 7.7197309,7.7110911 7.932139,7.4723543 8.1068828,7.2759503 8.4416572,6.9221181 8.5241297,6.6351604 c 0.068424,-0.2380779 0.193461,-1.0095277 0.193461,-1.0095277 0,0 0.2574313,0.3114532 0.6633804,0.501632 C 9.7347492,6.2930025 10.317071,6.3457104 10.605005,6.291873 10.882754,6.23994 11.46042,6.0411225 11.410307,5.7822057 Z"
       id="path833"
       sodipodi:nodetypes="cscsssscssssscssscsssssssssscsscscsscssscssc" />
    <ellipse
       style="fill:#e69691;stroke:#000000;stroke-width:0.18;stroke-linecap:round;stroke-linejoin:round"
       id="path835"
       cx="10.740894"
       cy="5.3704472"
       rx="0.050113037"
       ry="0.12528259" />
  </g>
</svg>
