<?xml version="1.0" encoding="UTF-8" standalone="no"?>
<svg
   xmlns:dc="http://purl.org/dc/elements/1.1/"
   xmlns:cc="http://creativecommons.org/ns#"
   xmlns:rdf="http://www.w3.org/1999/02/22-rdf-syntax-ns#"
   xmlns:svg="http://www.w3.org/2000/svg"
   xmlns="http://www.w3.org/2000/svg"
   xmlns:sodipodi="http://sodipodi.sourceforge.net/DTD/sodipodi-0.dtd"
   xmlns:inkscape="http://www.inkscape.org/namespaces/inkscape"
   width="40mm"
   height="20mm"
   viewBox="0 0 40 20"
   version="1.1"
   id="svg2196"
   inkscape:version="1.0 (4035a4fb49, 2020-05-01)"
   sodipodi:docname="dimsum-logo.svg">
  <defs
     id="defs2190" />
  <sodipodi:namedview
     id="base"
     pagecolor="#ffffff"
     bordercolor="#666666"
     borderopacity="1.0"
     inkscape:pageopacity="0.0"
     inkscape:pageshadow="2"
     inkscape:zoom="3.959798"
     inkscape:cx="77.920162"
     inkscape:cy="112.12744"
     inkscape:document-units="mm"
     inkscape:current-layer="layer1"
     inkscape:document-rotation="0"
     showgrid="false"
     inkscape:window-width="2003"
     inkscape:window-height="1183"
     inkscape:window-x="382"
     inkscape:window-y="83"
     inkscape:window-maximized="0" />
  <metadata
     id="metadata2193">
    <rdf:RDF>
      <cc:Work
         rdf:about="">
        <dc:format>image/svg+xml</dc:format>
        <dc:type
           rdf:resource="http://purl.org/dc/dcmitype/StillImage" />
        <dc:title></dc:title>
      </cc:Work>
    </rdf:RDF>
  </metadata>
  <g
     inkscape:groupmode="layer"
     id="layer6"
     inkscape:label="hargow base"
     style="display:inline">
    <path
       style="fill:#d5893d;fill-opacity:1;stroke:none;stroke-width:0.256104px;stroke-linecap:butt;stroke-linejoin:miter;stroke-opacity:1"
       d="m 2.80633,5.2211822 c 0,0 0.50083,0.400904 0.813848,1.26953 0.313018,0.868626 0.68864,1.870887 0.626037,2.605878 -0.0626,0.734991 -0.187812,2.0713388 -0.50083,2.4722428 -0.313018,0.400904 -0.939055,1.202713 -0.939055,1.202713 l 0.438226,0.534539 c 0,0 0.751244,-0.133635 1.126866,-0.467722 0.375622,-0.334087 1.1268657,-1.00226 1.6902987,-1.00226 0.563433,0 2.316336,1.00226 3.380598,1.536799 1.0642633,0.534539 3.3179933,1.135896 4.6952753,0.200453 1.37728,-0.935444 2.56675,-1.603618 2.56675,-4.3431298 0,-2.739513 -1.252073,-4.810852 -2.253732,-5.4790246 C 13.448953,3.0830266 11.257824,2.5484876 10.068355,3.2166616 8.8788857,3.8848346 7.6894157,4.6198262 6.8129647,5.1543652 5.9365137,5.6889042 5.6860987,5.8893562 5.060062,5.6889042 4.434026,5.4884512 3.432367,4.8870952 3.181952,4.6866432 2.931537,4.4861912 2.80633,5.2211822 2.80633,5.2211822 Z"
       id="path3537" />
  </g>
  <g
     inkscape:groupmode="layer"
     id="layer7"
     inkscape:label="highlight"
     style="display:inline" />
  <g
     inkscape:groupmode="layer"
     id="layer8"
     inkscape:label="highlight2">
    <g
       transform="translate(-5.078121,-16.704346)"
       id="g3565">
      <path
         style="display:inline;fill:#e1d9a5;fill-opacity:1;stroke:none;stroke-width:0.264583px;stroke-linecap:butt;stroke-linejoin:miter;stroke-opacity:1"
         d="m 9.095052,24.403087 c 0,0 0.2598586,0.767765 0.236235,1.358352 -0.023625,0.590588 -0.2362349,1.96075 -0.3779762,2.315104 -0.141741,0.354354 -1.0688598,1.399349 -1.0688598,1.399349 l 0.4382259,0.534538 c 0,0 0.8432456,-0.26843 1.0794806,-0.599159 0.2362351,-0.330729 0.8268225,-0.897692 1.1575525,-1.063056 0.330729,-0.165365 0.55565,-0.210563 0.968564,-0.141743 0.425223,0.07087 0.968564,0.248049 1.275669,0.389789 0.307106,0.14174 0.933129,0.543339 0.933129,0.543339 0,0 -0.2008,-0.448845 -0.649647,-0.732327 -0.448846,-0.283483 -0.803199,-0.507905 -1.110305,-0.626023 -0.307105,-0.118118 -0.708705,-0.283483 -0.708705,-0.283483 0,0 0.259859,-0.04725 0.637835,0.02363 0.377976,0.07087 0.661458,0.106302 0.921316,0.295295 0.259859,0.188987 0.850447,0.472469 0.850447,0.472469 0,0 -0.212612,-0.318917 -0.472471,-0.578775 -0.259858,-0.259861 -0.602398,-0.460658 -0.862257,-0.555154 -0.259858,-0.09449 -0.555152,-0.177177 -0.720517,-0.248046 -0.165364,-0.07087 -0.472471,-0.188989 -0.472471,-0.188989 0,0 0.425223,-0.07088 0.732329,-0.118117 0.307106,-0.04725 0.732329,-0.03543 1.122117,-0.03544 0.310719,-3e-6 0.791387,-0.200799 0.791387,-0.200799 0,0 -0.460658,0.03544 -0.885881,-0.01181 -0.425223,-0.04725 -0.74414,-0.07087 -1.015811,-0.165368 -0.267748,-0.09313 -0.578776,-0.224423 -0.578776,-0.224423 0,0 0.307106,-0.141741 0.566964,-0.212611 0.259859,-0.07087 0.661459,-0.141744 0.87407,-0.141744 0.212612,0 0.815011,0.07088 0.956752,0.07088 0.141741,0 -0.354352,-0.224425 -0.685082,-0.271672 -0.330729,-0.04725 -0.755951,-0.03543 -0.992186,-0.03543 -0.236236,0 -0.815012,-0.141742 -0.815012,-0.141742 0,0 0.578776,-0.129929 0.767764,-0.177176 0.188988,-0.04725 0.673271,-0.141744 0.862259,-0.236235 0.188988,-0.09449 0.637834,-0.484282 0.637834,-0.484282 0,0 -0.519717,0.200799 -0.803199,0.318917 -0.283483,0.118118 -0.862258,0.141737 -1.003999,0.118117 -0.141741,-0.02362 -0.496094,-0.118113 -0.496094,-0.118113 0,0 0.661458,-0.129929 0.921317,-0.224423 0.259858,-0.09449 0.519717,-0.342541 0.637835,-0.437035 0.118117,-0.09449 0.413411,-0.566964 0.413411,-0.566964 0,0 -0.67327,0.507906 -0.980376,0.602399 -0.307106,0.0945 -0.661458,0.08268 -0.897693,0.05906 -0.236235,-0.02362 -0.460659,-0.153553 -0.460659,-0.153553 0,0 0.626024,-0.106305 0.885882,-0.2008 0.259859,-0.09449 0.531529,-0.165364 0.720517,-0.330729 0.188988,-0.165364 0.590587,-0.779576 0.590587,-0.779576 0,0 -0.472469,0.437036 -0.708704,0.555153 -0.236235,0.118118 -0.578777,0.259859 -0.791388,0.259859 -0.212612,0 -0.661458,-0.05905 -0.661458,-0.05905 0,0 0.661458,-0.295294 0.933128,-0.496094 0.246967,-0.182541 0.885882,-1.015811 0.885882,-1.015811 0,0 -0.555153,0.484281 -0.838635,0.626023 -0.283482,0.141741 -0.803199,0.425223 -1.110305,0.425223 -0.307105,0 -0.47247,-0.07087 -0.7795755,-0.283482 C 9.6383926,22.418712 8.9769343,21.922619 8.7643228,21.780878 8.5517111,21.639137 8.381514,21.337753 8.1501115,21.402901 c -0.1881111,0.05296 -0.2656606,0.522627 -0.2656606,0.522627 0,0 0.4900839,0.623114 0.6082015,0.812102 0.1181174,0.188988 0.3897878,1.074869 0.6023996,1.665457 z"
         id="path3554"
         sodipodi:nodetypes="cssccsssscssccscsssccscsscssssscsscsscssccscsscsscscsscsscsc" />
      <path
         style="display:inline;fill:#e1d9a5;fill-opacity:1;stroke:none;stroke-width:0.264583px;stroke-linecap:butt;stroke-linejoin:miter;stroke-opacity:1"
         d="m 14.079612,29.842383 c 0,0 0.915168,0.552275 1.960753,0.785499 0.954149,0.212829 1.602691,0.147309 2.173363,0.05906 0.838672,-0.12969 1.610327,-0.797901 1.81901,-0.95675 0.791387,-0.602401 1.027622,-0.944941 1.287481,-1.417413 0.259859,-0.472469 0.448847,-1.452846 0.472471,-1.948939 0.02362,-0.496094 0.03588,-1.576616 -0.141742,-2.291481 -0.17542,-0.705988 -0.566964,-1.500093 -0.566964,-1.500093 0,0 0.02362,0.531529 0.07087,0.744141 0.04725,0.212611 0.366164,1.322917 0.354352,1.700893 -0.01181,0.377976 0,1.14574 -0.07087,1.570963 -0.07087,0.425222 -0.307106,1.405599 -0.555153,1.748139 -0.248047,0.342543 -0.968564,0.968566 -1.157552,1.086683 -0.188988,0.118118 -0.897693,0.578776 -1.192987,0.67327 -0.295294,0.09449 -0.791388,0.236236 -1.086682,0.259858 -0.295294,0.02363 -0.755952,-0.0118 -1.110305,-0.05906 -0.354353,-0.04725 -0.779576,-0.177176 -1.015811,-0.212611 -0.236235,-0.03544 -1.240234,-0.242159 -1.240234,-0.242159 z"
         id="path3558"
         sodipodi:nodetypes="csssssscssssssccscc" />
      <path
         style="fill:#f5ebeb;fill-opacity:1;stroke:none;stroke-width:0.264583px;stroke-linecap:butt;stroke-linejoin:miter;stroke-opacity:1"
         d="m 8.6964921,22.840056 c 0.1299295,0.354352 0.6260232,1.807198 0.6732702,2.031622 0.047247,0.224423 0.1063058,0.826823 0.07087,1.204799 -0.035435,0.377976 -0.1535528,1.488281 -0.2244233,1.677268 -0.070871,0.188989 -0.4015997,0.779576 -0.4960938,0.93313 -0.094494,0.153553 -0.7145073,0.785138 -0.7145073,0.785138 l 0.19479,0.21886 c 0,0 0.3897879,-0.259858 0.5315291,-0.389786 0.1417415,-0.129929 0.5669648,-0.720519 0.7087058,-0.968566 0.1417409,-0.248047 0.3543527,-1.086681 0.3897878,-1.299292 0.035435,-0.212611 0.141741,-1.287481 0.129929,-1.429222 C 9.9485386,25.462266 9.9012916,25.096101 9.8304206,24.836242 9.7595501,24.576384 9.4996915,23.584196 9.4051976,23.442455 9.3107036,23.300714 9.0272213,22.674691 8.8382331,22.462079 8.6492452,22.249468 8.224022,21.741562 8.1531515,21.717939 c -0.07087,-0.02362 -0.1475431,0.203709 -0.1475431,0.203709 0,0 0.5491427,0.634926 0.6908837,0.918408 z"
         id="path3556" />
    </g>
  </g>
  <g
     inkscape:label="text"
     inkscape:groupmode="layer"
     id="layer1"
     style="display:inline">
    <text
       xml:space="preserve"
       style="font-style:normal;font-variant:normal;font-weight:normal;font-stretch:normal;font-size:7.76111px;line-height:1.25;font-family:Centaur;-inkscape-font-specification:'Centaur, Normal';font-variant-ligatures:normal;font-variant-caps:normal;font-variant-numeric:normal;font-variant-east-asian:normal;fill:#000000;fill-opacity:1;stroke:none;stroke-width:0.264583"
       x="17.074116"
       y="11.963571"
       id="text2761"><tspan
         sodipodi:role="line"
         id="tspan2759"
         x="17.074116"
         y="11.963571"
         style="font-style:normal;font-variant:normal;font-weight:normal;font-stretch:normal;font-size:7.76111px;font-family:Centaur;-inkscape-font-specification:'Centaur, Normal';font-variant-ligatures:normal;font-variant-caps:normal;font-variant-numeric:normal;font-variant-east-asian:normal;stroke-width:0.264583">imSum</tspan></text>
  </g>
</svg>
