<?xml version="1.0" encoding="UTF-8" standalone="no"?>
<svg
   xmlns:osb="http://www.openswatchbook.org/uri/2009/osb"
   xmlns:dc="http://purl.org/dc/elements/1.1/"
   xmlns:cc="http://creativecommons.org/ns#"
   xmlns:rdf="http://www.w3.org/1999/02/22-rdf-syntax-ns#"
   xmlns:svg="http://www.w3.org/2000/svg"
   xmlns="http://www.w3.org/2000/svg"
   xmlns:xlink="http://www.w3.org/1999/xlink"
   xmlns:sodipodi="http://sodipodi.sourceforge.net/DTD/sodipodi-0.dtd"
   xmlns:inkscape="http://www.inkscape.org/namespaces/inkscape"
   width="40mm"
   height="20mm"
   viewBox="0 0 40 20"
   version="1.1"
   id="svg2196"
   inkscape:version="1.0 (4035a4fb49, 2020-05-01)"
   sodipodi:docname="dimsum-logo.svg">
  <defs
     id="defs2190">
    <linearGradient
       id="linearGradient5596"
       inkscape:collect="always">
      <stop
         id="stop5592"
         offset="0"
         style="stop-color:#d17852;stop-opacity:1;" />
      <stop
         id="stop5594"
         offset="1"
         style="stop-color:#d17852;stop-opacity:0;" />
    </linearGradient>
    <linearGradient
       osb:paint="solid"
       id="linearGradient3656">
      <stop
         id="stop3654"
         offset="0"
         style="stop-color:#a0690f;stop-opacity:1;" />
    </linearGradient>
    <linearGradient
       gradientUnits="userSpaceOnUse"
       y2="9.5552769"
       x2="36.85376"
       y1="9.5552769"
       x1="17.011393"
       id="linearGradient5600"
       xlink:href="#linearGradient5596"
       inkscape:collect="always" />
  </defs>
  <sodipodi:namedview
     id="base"
     pagecolor="#ffffff"
     bordercolor="#666666"
     borderopacity="1.0"
     inkscape:pageopacity="0.0"
     inkscape:pageshadow="2"
     inkscape:zoom="16.995262"
     inkscape:cx="28.252346"
     inkscape:cy="32.999312"
     inkscape:document-units="mm"
     inkscape:current-layer="layer8"
     inkscape:document-rotation="0"
     showgrid="false"
     inkscape:window-width="2003"
     inkscape:window-height="1183"
     inkscape:window-x="382"
     inkscape:window-y="83"
     inkscape:window-maximized="0" />
  <metadata
     id="metadata2193">
    <rdf:RDF>
      <cc:Work
         rdf:about="">
        <dc:format>image/svg+xml</dc:format>
        <dc:type
           rdf:resource="http://purl.org/dc/dcmitype/StillImage" />
        <dc:title></dc:title>
      </cc:Work>
    </rdf:RDF>
  </metadata>
  <g
     inkscape:groupmode="layer"
     id="layer6"
     inkscape:label="hargow base"
     style="display:inline">
    <path
       id="path3537"
       d="m 2.6181605,6.3948607 c 0,0 0.4468381,0.3576846 0.7261112,1.1326685 0.2792731,0.7749839 0.6144012,1.6691962 0.5585471,2.3249514 -0.055851,0.6557564 -0.167565,1.8480384 -0.446838,2.2057234 -0.2792731,0.357685 -0.8378203,1.073055 -0.8378203,1.073055 l 0.3909831,0.476913 c 0,0 0.6702562,-0.119229 1.0053843,-0.417301 0.3351281,-0.298069 1.005384,-0.894211 1.508076,-0.894211 0.5026922,0 2.0666234,0.894211 3.0161534,1.371125 0.9495305,0.476913 2.9602987,1.013441 4.1891017,0.178843 1.228802,-0.834599 2.290041,-1.43074 2.290041,-3.8749187 0,-2.4441801 -1.117093,-4.2922186 -2.010768,-4.8883589 C 12.113457,4.4872088 10.158542,4.0102958 9.0973033,4.6064373 8.0360643,5.202578 6.9748256,5.8583339 6.1928602,6.3352469 5.410895,6.81216 5.1874759,6.9910023 4.6289291,6.81216 4.0703828,6.6333168 3.1767077,6.0967899 2.9532886,5.9179477 2.7298696,5.7391054 2.6181605,6.3948607 2.6181605,6.3948607 Z"
       style="display:inline;fill:#f1b173;fill-opacity:1;stroke:#000000;stroke-width:0.18;stroke-linecap:butt;stroke-linejoin:miter;stroke-miterlimit:4;stroke-dasharray:none;stroke-opacity:1" />
  </g>
  <g
     style="display:inline"
     inkscape:label="pink base"
     id="g3615"
     inkscape:groupmode="layer">
    <path
       sodipodi:nodetypes="ccccsccscccscccsssscc"
       style="display:inline;fill:#e6968c;fill-opacity:1;stroke:none;stroke-width:0.228495px;stroke-linecap:butt;stroke-linejoin:miter;stroke-opacity:1"
       d="m 5.3637274,7.8286087 c 0,0 0.9499602,-0.1573666 1.9325413,-0.4532511 C 8.1653238,7.0045704 9.0656958,6.2486369 9.6762708,6.3772785 9.0369356,7.1675486 7.8384841,8.0210136 7.8384841,8.0210136 c 0,0 0.8298527,-0.2924167 1.450997,-0.6195511 0.6001147,-0.3160587 1.0176839,-0.3621589 1.4438639,-0.376485 0.287544,0.050654 0.710578,0.155162 0.875353,0.2799914 C 11.421207,7.4408066 10.751389,7.5165844 10.312522,7.6958777 10.090238,7.7866887 9.6228268,8.2080402 9.3310228,8.7361613 10.160902,8.5937494 10.684588,8.5168795 11.106023,8.7174973 10.773284,9.1159407 9.2680099,9.2595629 8.7544786,9.5626949 c 0.8353192,0.06927 1.2939564,0.2027865 1.5465994,0.2848672 0.248391,0.080699 -0.288591,0.5105099 -0.5391622,0.7704099 1.0153822,0.160825 1.9095452,0.145425 2.5823772,-0.188348 -0.140355,0.627209 -1.158428,1.539097 -2.6934255,1.802103 0.9513885,0.09378 2.1869245,0.213308 2.6141855,-0.04246 C 12.99369,11.753075 13.59646,11.20936 13.567019,9.3377901 13.53827,7.5101659 13.098309,6.959905 12.204634,6.3637647 11.310959,5.7676231 10.433883,5.0123737 9.3726448,5.6085152 8.3114056,6.2046559 7.8282639,6.5123824 7.2486833,6.880319 6.5253909,7.2951242 5.9862789,7.5634122 5.3637274,7.8286087 Z"
       id="path3613" />
  </g>
  <g
     inkscape:groupmode="layer"
     id="layer7"
     inkscape:label="highlight"
     style="display:inline">
    <path
       style="display:inline;fill:#e1dcb9;fill-opacity:1;stroke:none;stroke-width:0.23606px;stroke-linecap:butt;stroke-linejoin:miter;stroke-opacity:1"
       d="m 3.6982528,8.605326 c 0,0 0.2318445,0.6849962 0.2107677,1.2119153 -0.021078,0.5269207 -0.2107677,1.7493717 -0.3372284,2.0655247 -0.1264608,0.316153 -0.9536316,1.248493 -0.9536316,1.248493 l 0.390983,0.476912 c 0,0 0.7523396,-0.239492 0.9631073,-0.534567 0.2107678,-0.295075 0.7376869,-0.800916 1.0327626,-0.948453 0.2950748,-0.147538 0.4957483,-0.187865 0.864148,-0.126463 0.3793818,0.06323 0.8641478,0.221308 1.1381458,0.347768 0.273999,0.12646 0.89935,0.401242 0.89935,0.401242 0,0 0.626691,0.343836 1.074119,0.499222 0.6185066,0.2148 -0.557919,-0.519967 -0.831918,-0.625352 -0.273997,-0.105384 -0.941333,-0.486783 -0.941333,-0.486783 0,0 -1.1796725,-0.610108 -0.8424441,-0.546868 0.3372284,0.06323 0.8947361,0.09217 1.1811371,0.104769 0.415593,0.01828 0.907569,-9.79e-4 0.907569,-9.79e-4 0,0 0.9881836,-0.05722 1.3087966,-0.125857 0.3026952,-0.0648 1.1824162,-0.347239 1.4608482,-0.439805 0.309008,-0.102733 -0.905852,0.09345 -1.3606372,0.117182 -0.473706,0.02472 -1.6512906,-0.05766 -1.6512906,-0.05766 0,0 -0.976146,-0.308666 -1.261743,-0.50115 0.365872,-0.150738 0.612258,-0.262133 0.946735,-0.357355 0.342013,-0.09737 0.970475,-0.142877 0.970475,-0.142877 0,0 0.4287496,-0.0073 0.7992986,-0.09895 0.305496,-0.07557 -0.7474396,-0.1551031 -1.2236836,-0.1976526 -0.251918,-0.022508 -1.059273,-0.066594 -1.059273,-0.066594 0,0 0.750073,-0.3269128 0.95686,-0.4235514 0.217712,-0.1017436 0.762635,-0.2331048 0.955237,-0.2935068 0.2826166,-0.088632 0.7805388,-0.1253093 1.0290048,-0.1622695 0.25563,-0.038026 0.17501,-0.1287187 -0.168562,-0.1421585 -0.3436832,-0.013443 -1.5300098,0.203241 -1.9710058,0.2690673 -0.385571,0.057553 -1.119702,0.015526 -1.119702,0.015526 0,0 0.883877,-0.2495566 1.119309,-0.3668797 0.155558,-0.07752 1.4251826,-0.8677294 1.8634378,-1.0710415 0.454705,-0.2109437 1.292149,-0.3758812 1.292149,-0.3758812 0,0 -0.758927,-0.032631 -1.025886,0.029079 -0.311387,0.07198 -0.4763662,0.1161504 -0.7583212,0.2545395 -0.230222,0.1129977 -0.6848256,0.3539898 -0.6848256,0.3539898 0,0 -0.395406,0.226517 -0.748214,0.292549 -0.242485,0.045384 -0.822545,0.2289257 -1.17653,0.2531967 -0.134639,0.00923 -0.5833051,0.037049 -0.5833051,0.037049 0,0 0.7106031,-0.2651355 1.0296091,-0.4564512 0.33571,-0.1996618 0.75455,-0.4691249 0.9948,-0.6822985 0.15844,-0.140584 0.883589,-0.8302296 0.883589,-0.8302296 0,0 -1.03673,0.6735549 -1.372833,0.823108 -0.225391,0.1002899 -0.394399,0.1698454 -1.144524,0.3898031 -0.2149961,0.063043 -0.9848241,0.1062748 -0.9848241,0.1062748 0,0 0.9874811,-0.799673 1.2135281,-0.9830299 0.21733,-0.1762759 0.694613,-0.5435559 0.897545,-0.7787576 0.235704,-0.2731863 0.462224,-0.8210839 0.462224,-0.8210839 0,0 -0.336942,0.3462489 -0.662507,0.5930569 -0.218348,0.1655274 -0.596081,0.4216938 -0.596081,0.4216938 0,0 -0.687405,0.4988906 -0.9403263,0.6253521 -0.252921,0.1264604 -0.7166102,0.3793816 -0.9906086,0.3793816 -0.2739975,0 -0.4215354,-0.06323 -0.6955334,-0.2529212 C 4.1830186,6.8348765 3.5928687,6.3922648 3.4031778,6.2658042 3.2134868,6.1393436 3.0616378,5.8704502 2.8551815,5.928575 2.6873497,5.9758256 2.6181604,6.3948602 2.6181604,6.3948602 c 0,0 0.4372505,0.5559392 0.5426345,0.7245534 0.1053838,0.1686142 0.3477668,0.9589929 0.5374579,1.4859124 z"
       id="path3554"
       sodipodi:nodetypes="cssccsssscssccscsssccscsscssssscsscsscssccscsscsscscsscsscsc" />
  </g>
  <g
     style="display:inline"
     inkscape:groupmode="layer"
     id="layer8"
     inkscape:label="highlight2">
    <path
       sodipodi:nodetypes="csssssscssssssccscc"
       id="path3558"
       d="m 8.0364762,13.287022 c 0,0 0.8943484,0.601683 1.8272145,0.809764 0.8512873,0.189885 1.4921853,0.123645 2.0013363,0.04491 0.748259,-0.115708 1.413374,-0.711883 1.59956,-0.853607 0.706071,-0.537459 0.901271,-0.835288 1.133116,-1.256825 0.231845,-0.421535 0.353755,-1.265086 0.374832,-1.707698 0.02107,-0.4426129 -0.0069,-1.4066493 -0.165381,-2.0444484 -0.156509,-0.629879 -0.529195,-1.3772958 -0.529195,-1.3772958 0,0 0.13783,0.5442839 0.17999,0.7339753 0.04216,0.1896905 0.208572,1.2157353 0.198033,1.5529636 -0.01054,0.3372283 -0.07087,1.0340353 -0.1341,1.4134173 -0.06323,0.379381 -0.309433,1.065081 -0.530739,1.370693 -0.221307,0.305615 -0.722408,0.722409 -0.902834,0.910474 -0.137655,0.143484 -0.730047,0.563628 -0.993507,0.647936 -0.26346,0.0843 -0.682448,0.22258 -0.945908,0.243656 -0.26346,0.02108 -0.639022,0.04853 -0.955174,0.0064 C 9.8775678,13.739173 9.3328218,13.64688 9.1220547,13.615265 8.9112864,13.583645 8.0364762,13.287022 8.0364762,13.287022 Z"
       style="display:inline;fill:#e19184;fill-opacity:1;stroke:none;stroke-width:0.23606px;stroke-linecap:butt;stroke-linejoin:miter;stroke-opacity:1" />
    <path
       id="path3556"
       d="m 3.3426597,7.2107981 c 0.1159224,0.3161511 0.5585348,1.6123731 0.6006883,1.8126031 0.042154,0.2002291 0.094845,0.7376874 0.06323,1.0749158 -0.031615,0.337229 -0.1369991,1.327837 -0.2002294,1.49645 -0.063231,0.168616 -0.3583052,0.695534 -0.4426124,0.832534 -0.084307,0.137 -0.6374799,0.700497 -0.6374799,0.700497 l 0.1737907,0.195266 c 0,0 0.3477668,-0.231845 0.4742276,-0.347766 0.126461,-0.115922 0.5058431,-0.642843 0.6323037,-0.864149 C 4.1330389,11.889842 4.3227301,11.141617 4.3543451,10.951927 4.38596,10.762236 4.4808057,9.8032421 4.4702671,9.6767815 4.4597294,9.5503209 4.4175759,9.2236303 4.3543451,8.9917854 4.2911148,8.7599413 4.0592702,7.8747161 3.9749632,7.7482555 3.8906562,7.6217949 3.6377346,7.0632602 3.4691203,6.8735688 3.3005062,6.6838784 2.9211242,6.2307271 2.8578939,6.2096508 2.794664,6.1885772 2.7262566,6.391399 2.7262566,6.391399 c 0,0 0.4899425,0.5664778 0.6164031,0.8193991 z"
       style="fill:#f5f5eb;fill-opacity:1;stroke:none;stroke-width:0.23606px;stroke-linecap:butt;stroke-linejoin:miter;stroke-opacity:1" />
  </g>
  <g
     inkscape:label="text"
     inkscape:groupmode="layer"
     id="layer1"
     style="display:inline">
    <text
       xml:space="preserve"
       style="font-style:normal;font-variant:normal;font-weight:normal;font-stretch:normal;font-size:8.46667px;line-height:1.25;font-family:Centaur;-inkscape-font-specification:'Centaur, Normal';font-variant-ligatures:normal;font-variant-caps:normal;font-variant-numeric:normal;font-variant-east-asian:normal;fill:#030501;fill-opacity:1;stroke:none;stroke-width:0.264583"
       x="16.056747"
       y="12.183736"
       id="text2761"><tspan
         sodipodi:role="line"
         id="tspan2759"
         x="16.056747"
         y="12.183736"
         style="font-style:normal;font-variant:normal;font-weight:normal;font-stretch:normal;font-size:8.46667px;font-family:Centaur;-inkscape-font-specification:'Centaur, Normal';font-variant-ligatures:normal;font-variant-caps:normal;font-variant-numeric:normal;font-variant-east-asian:normal;fill:#030501;fill-opacity:1;stroke-width:0.264583">imSum</tspan></text>
  </g>
</svg>
